G04 #@! TF.FileFunction,Legend,Bot*
%FSLAX45Y45*%
G04 Gerber Fmt 4.5, Leading zero omitted, Abs format (unit mm)*
G04 Created by KiCad (PCBNEW 4.0.4+e1-6308~48~ubuntu16.04.1-stable) date Mon Sep 19 20:15:51 2016*
%MOMM*%
%LPD*%
G01*
G04 APERTURE LIST*
%ADD10C,0.100000*%
%ADD11C,0.150000*%
G04 APERTURE END LIST*
D10*
D11*
X2860320Y-11649640D02*
X3457220Y-11649640D01*
X3457220Y-12371000D02*
X3457220Y-11614080D01*
X2857780Y-11629320D02*
X2857780Y-11614080D01*
X2857780Y-12371000D02*
X2857780Y-12350680D01*
X2857780Y-11990000D02*
X2857780Y-12350680D01*
X2857780Y-12371000D02*
X3457220Y-12371000D01*
X3452140Y-11614080D02*
X2857780Y-11614080D01*
X2857780Y-11629320D02*
X2857780Y-11990000D01*
X2967000Y-11685200D02*
G75*
G03X2967000Y-11685200I-12700J0D01*
G01*
X4187820Y-11637140D02*
X4784720Y-11637140D01*
X4784720Y-12358500D02*
X4784720Y-11601580D01*
X4185280Y-11616820D02*
X4185280Y-11601580D01*
X4185280Y-12358500D02*
X4185280Y-12338180D01*
X4185280Y-11977500D02*
X4185280Y-12338180D01*
X4185280Y-12358500D02*
X4784720Y-12358500D01*
X4779640Y-11601580D02*
X4185280Y-11601580D01*
X4185280Y-11616820D02*
X4185280Y-11977500D01*
X4294500Y-11672700D02*
G75*
G03X4294500Y-11672700I-12700J0D01*
G01*
X9875320Y-11719640D02*
X10472220Y-11719640D01*
X10472220Y-12441000D02*
X10472220Y-11684080D01*
X9872780Y-11699320D02*
X9872780Y-11684080D01*
X9872780Y-12441000D02*
X9872780Y-12420680D01*
X9872780Y-12060000D02*
X9872780Y-12420680D01*
X9872780Y-12441000D02*
X10472220Y-12441000D01*
X10467140Y-11684080D02*
X9872780Y-11684080D01*
X9872780Y-11699320D02*
X9872780Y-12060000D01*
X9982000Y-11755200D02*
G75*
G03X9982000Y-11755200I-12700J0D01*
G01*
X11052820Y-11719640D02*
X11649720Y-11719640D01*
X11649720Y-12441000D02*
X11649720Y-11684080D01*
X11050280Y-11699320D02*
X11050280Y-11684080D01*
X11050280Y-12441000D02*
X11050280Y-12420680D01*
X11050280Y-12060000D02*
X11050280Y-12420680D01*
X11050280Y-12441000D02*
X11649720Y-12441000D01*
X11644640Y-11684080D02*
X11050280Y-11684080D01*
X11050280Y-11699320D02*
X11050280Y-12060000D01*
X11159500Y-11755200D02*
G75*
G03X11159500Y-11755200I-12700J0D01*
G01*
M02*
