M48
INCH,TZ
T1C0.031
T2C0.032
T3C0.039
T4C0.039
T5C0.040
T6C0.047
T7C0.050
T8C0.059
T9C0.067
T10C0.161
T11C0.177
%
G90
G05
T1
X0.7916Y-3.2926
X0.836Y-4.264
X0.904Y-4.504
X0.95Y-4.386
X0.952Y-4.248
X0.958Y-3.24
X1.082Y-1.8129
X1.1407Y-4.4104
X1.1447Y-5.062
X1.3376Y-4.4104
X1.3415Y-5.062
X1.4804Y-4.4109
X1.498Y-3.52
X1.568Y-3.268
X1.614Y-4.2
X1.6555Y-4.4006
X1.6624Y-5.0453
X1.76Y-4.132
X1.83Y-3.692
X1.8524Y-4.4006
X1.8593Y-5.0453
X1.896Y-3.976
X1.9Y-2.12
X1.9878Y-6.6307
X1.9899Y-3.4867
X1.9899Y-3.7867
X2.0899Y-3.4867
X2.0899Y-3.7867
X2.0924Y-3.3742
X2.1228Y-5.0051
X2.1411Y-4.58
X2.1899Y-3.4867
X2.1899Y-3.7867
X2.202Y-4.354
X2.2893Y-3.3742
X2.2899Y-3.4867
X2.2899Y-3.7867
X2.338Y-4.58
X2.3899Y-3.4867
X2.3899Y-3.7867
X2.3944Y-3.9582
X2.3944Y-4.0722
X2.4899Y-3.4867
X2.4899Y-3.7867
X2.5899Y-3.4867
X2.5899Y-3.7867
X2.5913Y-3.9582
X2.5913Y-4.0722
X2.6823Y-5.0413
X2.8075Y-4.612
X2.8075Y-4.912
X2.9075Y-4.612
X2.9075Y-4.912
X3.0075Y-4.612
X3.0075Y-4.912
X3.0587Y-6.1685
X3.1075Y-4.612
X3.1075Y-4.912
X3.134Y-3.6849
X3.2185Y-5.4067
X3.31Y-4.44
X3.3437Y-3.2716
X3.3437Y-3.3976
X3.3437Y-4.0117
X3.3437Y-4.1377
X3.534Y-2.7649
X3.5406Y-3.2716
X3.5406Y-3.3976
X3.5406Y-4.0117
X3.5406Y-4.1377
X3.5681Y-4.9906
X3.8652Y-5.062
X3.9045Y-4.435
X3.94Y-4.086
X4.024Y-4.246
X4.0366Y-5.7371
X4.0366Y-5.8454
X4.062Y-5.062
X4.1014Y-4.435
X4.226Y-4.9642
X4.2334Y-5.7371
X4.2334Y-5.8454
X4.26Y-1.8209
X4.3671Y-4.4114
X4.3685Y-5.074
X4.4197Y-5.2732
X4.45Y-4.232
X4.5094Y-5.4878
X4.562Y-4.27
X4.564Y-4.4114
X4.5654Y-5.074
T2
X0.9783Y-2.9237
X1.0783Y-2.9237
X1.1783Y-2.9237
X4.2385Y-2.8985
X4.3385Y-2.8985
X4.4385Y-2.8985
T3
X1.5205Y-5.3048
X1.5205Y-5.4048
X1.5205Y-5.5048
X1.5205Y-5.6048
X1.5205Y-5.7048
X1.5205Y-5.8048
X1.5205Y-5.9048
X1.5205Y-6.0048
X1.5205Y-6.1648
X1.5205Y-6.2648
X1.5205Y-6.3648
X1.5205Y-6.4648
X1.5205Y-6.5648
X1.5205Y-6.6648
X1.5205Y-6.7648
X1.5205Y-6.8648
X3.4205Y-5.3048
X3.4205Y-5.4048
X3.4205Y-5.5048
X3.4205Y-5.6048
X3.4205Y-5.7048
X3.4205Y-5.8048
X3.4205Y-6.0048
X3.4205Y-6.1048
X3.4205Y-6.2048
X3.4205Y-6.3048
X3.4205Y-6.4048
X3.4205Y-6.5048
T4
X0.8833Y-2.7537
X0.8855Y-3.1251
X1.2833Y-2.7537
X1.2855Y-3.1251
X1.486Y-2.056
X1.486Y-2.256
X1.8819Y-2.9213
X2.0814Y-3.2431
X2.1756Y-2.6772
X2.2756Y-2.6772
X2.2819Y-2.9213
X2.3612Y-5.4339
X2.3612Y-5.8339
X2.3756Y-2.6772
X2.4862Y-5.4339
X2.4862Y-5.8339
X2.6532Y-5.4389
X2.6532Y-5.8389
X2.7782Y-5.4389
X2.7782Y-5.8389
X2.7811Y-2.9134
X2.81Y-4.03
X2.81Y-4.43
X2.932Y-3.946
X2.932Y-4.346
X3.0024Y-2.6772
X3.1024Y-2.6772
X3.1547Y-3.2716
X3.1547Y-3.3716
X3.1547Y-4.0377
X3.1547Y-4.1377
X3.1811Y-2.9134
X3.2024Y-2.6772
X3.2571Y-3.1377
X3.2571Y-4.2716
X3.3461Y-3.5787
X3.3461Y-3.8149
X3.4461Y-3.5787
X3.4461Y-3.8149
X3.5461Y-3.5787
X3.5461Y-3.8149
X3.6571Y-3.1377
X3.6571Y-4.2716
X3.7846Y-3.5787
X3.7848Y-3.807
X3.8243Y-5.982
X3.878Y-2.068
X3.878Y-2.268
X4.035Y-5.6092
X4.0604Y-5.974
X4.134Y-2.732
X4.135Y-5.6092
X4.1452Y-3.0888
X4.235Y-5.6092
X4.4598Y-5.7238
X4.4598Y-5.8238
X4.4604Y-5.974
X4.534Y-2.732
X4.5452Y-3.0888
T5
X1.1428Y-3.395
X1.1428Y-3.495
X1.1428Y-3.595
X1.1428Y-3.695
X1.1428Y-3.795
X1.1428Y-3.895
X1.1428Y-3.995
X1.1428Y-4.095
X1.2428Y-3.395
X1.2428Y-3.495
X1.2428Y-3.595
X1.2428Y-3.695
X1.2428Y-3.795
X1.2428Y-3.895
X1.2428Y-3.995
X1.2428Y-4.095
X2.363Y-4.9115
X2.363Y-5.0115
X2.488Y-4.9115
X2.488Y-5.0115
X2.6482Y-5.1689
X2.6482Y-5.2689
X2.7732Y-5.1689
X2.7732Y-5.2689
X4.0295Y-5.3375
X4.1295Y-5.3375
X4.2295Y-5.3375
T6
X1.79Y-1.46
X1.79Y-1.6569
X3.626Y-1.452
X3.626Y-1.6489
T7
X2.4814Y-3.2431
X3.7846Y-3.1787
X3.7848Y-4.207
X3.8243Y-5.582
T8
X2.623Y-1.8952
X2.879Y-0.9252
T9
X2.75Y-2.0222
X2.752Y-0.7992
T10
X1.0982Y-1.203
X1.0982Y-2.383
X4.296Y-1.214
X4.296Y-2.394
T11
X2.75Y-1.4102
T4
X4.2362Y-3.7638G85X4.2362Y-3.6851
G05
X4.2403Y-6.3957G85X4.2403Y-6.3171
G05
X4.3937Y-3.5394G85X4.315Y-3.5394
G05
X4.3978Y-6.1714G85X4.319Y-6.1714
G05
X4.4724Y-3.7638G85X4.4724Y-3.6851
G05
X4.4765Y-6.3957G85X4.4765Y-6.3171
G05
T0
M30
