G04 #@! TF.FileFunction,Legend,Top*
%FSLAX45Y45*%
G04 Gerber Fmt 4.5, Leading zero omitted, Abs format (unit mm)*
G04 Created by KiCad (PCBNEW 4.0.4+e1-6308~48~ubuntu16.04.1-stable) date Mon Sep 19 20:15:51 2016*
%MOMM*%
%LPD*%
G01*
G04 APERTURE LIST*
%ADD10C,0.100000*%
%ADD11C,0.300000*%
%ADD12C,0.200000*%
%ADD13C,0.150000*%
G04 APERTURE END LIST*
D10*
D11*
X10350143Y-2153057D02*
X10400143Y-2303057D01*
X10450143Y-2153057D01*
X10500143Y-2303057D02*
X10500143Y-2153057D01*
X10500143Y-2224486D02*
X10585857Y-2224486D01*
X10585857Y-2303057D02*
X10585857Y-2153057D01*
X10657286Y-2303057D02*
X10657286Y-2153057D01*
X10807286Y-2160200D02*
X10793000Y-2153057D01*
X10771571Y-2153057D01*
X10750143Y-2160200D01*
X10735857Y-2174486D01*
X10728714Y-2188771D01*
X10721571Y-2217343D01*
X10721571Y-2238771D01*
X10728714Y-2267343D01*
X10735857Y-2281629D01*
X10750143Y-2295914D01*
X10771571Y-2303057D01*
X10785857Y-2303057D01*
X10807286Y-2295914D01*
X10814429Y-2288771D01*
X10814429Y-2238771D01*
X10785857Y-2238771D01*
X10878714Y-2303057D02*
X10878714Y-2153057D01*
X10878714Y-2224486D02*
X10964429Y-2224486D01*
X10964429Y-2303057D02*
X10964429Y-2153057D01*
X2646000Y-2102257D02*
X2696000Y-2252257D01*
X2746000Y-2102257D01*
X2867429Y-2252257D02*
X2796000Y-2252257D01*
X2796000Y-2102257D01*
X2946000Y-2102257D02*
X2974571Y-2102257D01*
X2988857Y-2109400D01*
X3003143Y-2123686D01*
X3010286Y-2152257D01*
X3010286Y-2202257D01*
X3003143Y-2230829D01*
X2988857Y-2245114D01*
X2974571Y-2252257D01*
X2946000Y-2252257D01*
X2931714Y-2245114D01*
X2917429Y-2230829D01*
X2910286Y-2202257D01*
X2910286Y-2152257D01*
X2917429Y-2123686D01*
X2931714Y-2109400D01*
X2946000Y-2102257D01*
X3060286Y-2102257D02*
X3096000Y-2252257D01*
X3124571Y-2145114D01*
X3153143Y-2252257D01*
X3188857Y-2102257D01*
X7984771Y-2759757D02*
X7984771Y-2609757D01*
X8041914Y-2609757D01*
X8056200Y-2616900D01*
X8063343Y-2624043D01*
X8070486Y-2638329D01*
X8070486Y-2659757D01*
X8063343Y-2674043D01*
X8056200Y-2681186D01*
X8041914Y-2688329D01*
X7984771Y-2688329D01*
X8163343Y-2609757D02*
X8191914Y-2609757D01*
X8206200Y-2616900D01*
X8220486Y-2631186D01*
X8227628Y-2659757D01*
X8227628Y-2709757D01*
X8220486Y-2738329D01*
X8206200Y-2752614D01*
X8191914Y-2759757D01*
X8163343Y-2759757D01*
X8149057Y-2752614D01*
X8134771Y-2738329D01*
X8127628Y-2709757D01*
X8127628Y-2659757D01*
X8134771Y-2631186D01*
X8149057Y-2616900D01*
X8163343Y-2609757D01*
X8277629Y-2609757D02*
X8313343Y-2759757D01*
X8341914Y-2652614D01*
X8370486Y-2759757D01*
X8406200Y-2609757D01*
X8463343Y-2681186D02*
X8513343Y-2681186D01*
X8534772Y-2759757D02*
X8463343Y-2759757D01*
X8463343Y-2609757D01*
X8534772Y-2609757D01*
X8684772Y-2759757D02*
X8634772Y-2688329D01*
X8599057Y-2759757D02*
X8599057Y-2609757D01*
X8656200Y-2609757D01*
X8670486Y-2616900D01*
X8677629Y-2624043D01*
X8684772Y-2638329D01*
X8684772Y-2659757D01*
X8677629Y-2674043D01*
X8670486Y-2681186D01*
X8656200Y-2688329D01*
X8599057Y-2688329D01*
X8052629Y-2936186D02*
X8074057Y-2943329D01*
X8081200Y-2950471D01*
X8088343Y-2964757D01*
X8088343Y-2986186D01*
X8081200Y-3000471D01*
X8074057Y-3007614D01*
X8059771Y-3014757D01*
X8002629Y-3014757D01*
X8002629Y-2864757D01*
X8052629Y-2864757D01*
X8066914Y-2871900D01*
X8074057Y-2879043D01*
X8081200Y-2893329D01*
X8081200Y-2907614D01*
X8074057Y-2921900D01*
X8066914Y-2929043D01*
X8052629Y-2936186D01*
X8002629Y-2936186D01*
X8224057Y-3014757D02*
X8152629Y-3014757D01*
X8152629Y-2864757D01*
X8302629Y-2864757D02*
X8331200Y-2864757D01*
X8345486Y-2871900D01*
X8359771Y-2886186D01*
X8366914Y-2914757D01*
X8366914Y-2964757D01*
X8359771Y-2993329D01*
X8345486Y-3007614D01*
X8331200Y-3014757D01*
X8302629Y-3014757D01*
X8288343Y-3007614D01*
X8274057Y-2993329D01*
X8266914Y-2964757D01*
X8266914Y-2914757D01*
X8274057Y-2886186D01*
X8288343Y-2871900D01*
X8302629Y-2864757D01*
X8516914Y-3000471D02*
X8509772Y-3007614D01*
X8488343Y-3014757D01*
X8474057Y-3014757D01*
X8452629Y-3007614D01*
X8438343Y-2993329D01*
X8431200Y-2979043D01*
X8424057Y-2950471D01*
X8424057Y-2929043D01*
X8431200Y-2900471D01*
X8438343Y-2886186D01*
X8452629Y-2871900D01*
X8474057Y-2864757D01*
X8488343Y-2864757D01*
X8509772Y-2871900D01*
X8516914Y-2879043D01*
X8581200Y-3014757D02*
X8581200Y-2864757D01*
X8666914Y-3014757D02*
X8602629Y-2929043D01*
X8666914Y-2864757D02*
X8581200Y-2950471D01*
X9462986Y-16667086D02*
X9462986Y-16717086D01*
X9541557Y-16717086D02*
X9391557Y-16717086D01*
X9391557Y-16645657D01*
X9462986Y-16588514D02*
X9462986Y-16538514D01*
X9541557Y-16517086D02*
X9541557Y-16588514D01*
X9391557Y-16588514D01*
X9391557Y-16517086D01*
X9462986Y-16452800D02*
X9462986Y-16402800D01*
X9541557Y-16381371D02*
X9541557Y-16452800D01*
X9391557Y-16452800D01*
X9391557Y-16381371D01*
X9541557Y-16317086D02*
X9391557Y-16317086D01*
X9391557Y-16281371D01*
X9398700Y-16259943D01*
X9412986Y-16245657D01*
X9427271Y-16238514D01*
X9455843Y-16231371D01*
X9477271Y-16231371D01*
X9505843Y-16238514D01*
X9520129Y-16245657D01*
X9534414Y-16259943D01*
X9541557Y-16281371D01*
X9541557Y-16317086D01*
X9462986Y-16167086D02*
X9462986Y-16117086D01*
X9541557Y-16095657D02*
X9541557Y-16167086D01*
X9391557Y-16167086D01*
X9391557Y-16095657D01*
X9541557Y-15945657D02*
X9470129Y-15995657D01*
X9541557Y-16031371D02*
X9391557Y-16031371D01*
X9391557Y-15974229D01*
X9398700Y-15959943D01*
X9405843Y-15952800D01*
X9420129Y-15945657D01*
X9441557Y-15945657D01*
X9455843Y-15952800D01*
X9462986Y-15959943D01*
X9470129Y-15974229D01*
X9470129Y-16031371D01*
X9541557Y-15695657D02*
X9541557Y-15767086D01*
X9391557Y-15767086D01*
X9391557Y-15617086D02*
X9391557Y-15588514D01*
X9398700Y-15574228D01*
X9412986Y-15559943D01*
X9441557Y-15552800D01*
X9491557Y-15552800D01*
X9520129Y-15559943D01*
X9534414Y-15574228D01*
X9541557Y-15588514D01*
X9541557Y-15617086D01*
X9534414Y-15631371D01*
X9520129Y-15645657D01*
X9491557Y-15652800D01*
X9441557Y-15652800D01*
X9412986Y-15645657D01*
X9398700Y-15631371D01*
X9391557Y-15617086D01*
X9391557Y-15502800D02*
X9541557Y-15467086D01*
X9434414Y-15438514D01*
X9541557Y-15409943D01*
X9391557Y-15374228D01*
X9717986Y-16331371D02*
X9725129Y-16309943D01*
X9732271Y-16302800D01*
X9746557Y-16295657D01*
X9767986Y-16295657D01*
X9782271Y-16302800D01*
X9789414Y-16309943D01*
X9796557Y-16324229D01*
X9796557Y-16381371D01*
X9646557Y-16381371D01*
X9646557Y-16331371D01*
X9653700Y-16317086D01*
X9660843Y-16309943D01*
X9675129Y-16302800D01*
X9689414Y-16302800D01*
X9703700Y-16309943D01*
X9710843Y-16317086D01*
X9717986Y-16331371D01*
X9717986Y-16381371D01*
X9796557Y-16159943D02*
X9796557Y-16231371D01*
X9646557Y-16231371D01*
X9646557Y-16081371D02*
X9646557Y-16052800D01*
X9653700Y-16038514D01*
X9667986Y-16024228D01*
X9696557Y-16017086D01*
X9746557Y-16017086D01*
X9775129Y-16024228D01*
X9789414Y-16038514D01*
X9796557Y-16052800D01*
X9796557Y-16081371D01*
X9789414Y-16095657D01*
X9775129Y-16109943D01*
X9746557Y-16117086D01*
X9696557Y-16117086D01*
X9667986Y-16109943D01*
X9653700Y-16095657D01*
X9646557Y-16081371D01*
X9782271Y-15867086D02*
X9789414Y-15874228D01*
X9796557Y-15895657D01*
X9796557Y-15909943D01*
X9789414Y-15931371D01*
X9775129Y-15945657D01*
X9760843Y-15952800D01*
X9732271Y-15959943D01*
X9710843Y-15959943D01*
X9682271Y-15952800D01*
X9667986Y-15945657D01*
X9653700Y-15931371D01*
X9646557Y-15909943D01*
X9646557Y-15895657D01*
X9653700Y-15874228D01*
X9660843Y-15867086D01*
X9796557Y-15802800D02*
X9646557Y-15802800D01*
X9796557Y-15717086D02*
X9710843Y-15781371D01*
X9646557Y-15717086D02*
X9732271Y-15802800D01*
X10315657Y-10326586D02*
X10265657Y-10326586D01*
X10265657Y-10405157D02*
X10265657Y-10255157D01*
X10337086Y-10255157D01*
X10394229Y-10326586D02*
X10444229Y-10326586D01*
X10465657Y-10405157D02*
X10394229Y-10405157D01*
X10394229Y-10255157D01*
X10465657Y-10255157D01*
X10529943Y-10326586D02*
X10579943Y-10326586D01*
X10601371Y-10405157D02*
X10529943Y-10405157D01*
X10529943Y-10255157D01*
X10601371Y-10255157D01*
X10665657Y-10405157D02*
X10665657Y-10255157D01*
X10701371Y-10255157D01*
X10722800Y-10262300D01*
X10737086Y-10276586D01*
X10744229Y-10290871D01*
X10751371Y-10319443D01*
X10751371Y-10340871D01*
X10744229Y-10369443D01*
X10737086Y-10383729D01*
X10722800Y-10398014D01*
X10701371Y-10405157D01*
X10665657Y-10405157D01*
X10815657Y-10326586D02*
X10865657Y-10326586D01*
X10887086Y-10405157D02*
X10815657Y-10405157D01*
X10815657Y-10255157D01*
X10887086Y-10255157D01*
X11037086Y-10405157D02*
X10987086Y-10333729D01*
X10951371Y-10405157D02*
X10951371Y-10255157D01*
X11008514Y-10255157D01*
X11022800Y-10262300D01*
X11029943Y-10269443D01*
X11037086Y-10283729D01*
X11037086Y-10305157D01*
X11029943Y-10319443D01*
X11022800Y-10326586D01*
X11008514Y-10333729D01*
X10951371Y-10333729D01*
X11215657Y-10405157D02*
X11215657Y-10255157D01*
X11215657Y-10326586D02*
X11301371Y-10326586D01*
X11301371Y-10405157D02*
X11301371Y-10255157D01*
X11372800Y-10405157D02*
X11372800Y-10255157D01*
X11522800Y-10262300D02*
X11508514Y-10255157D01*
X11487086Y-10255157D01*
X11465657Y-10262300D01*
X11451371Y-10276586D01*
X11444229Y-10290871D01*
X11437086Y-10319443D01*
X11437086Y-10340871D01*
X11444229Y-10369443D01*
X11451371Y-10383729D01*
X11465657Y-10398014D01*
X11487086Y-10405157D01*
X11501371Y-10405157D01*
X11522800Y-10398014D01*
X11529943Y-10390871D01*
X11529943Y-10340871D01*
X11501371Y-10340871D01*
X11594229Y-10405157D02*
X11594229Y-10255157D01*
X11594229Y-10326586D02*
X11679943Y-10326586D01*
X11679943Y-10405157D02*
X11679943Y-10255157D01*
X10694229Y-10581586D02*
X10715657Y-10588729D01*
X10722800Y-10595871D01*
X10729943Y-10610157D01*
X10729943Y-10631586D01*
X10722800Y-10645871D01*
X10715657Y-10653014D01*
X10701371Y-10660157D01*
X10644229Y-10660157D01*
X10644229Y-10510157D01*
X10694229Y-10510157D01*
X10708514Y-10517300D01*
X10715657Y-10524443D01*
X10722800Y-10538729D01*
X10722800Y-10553014D01*
X10715657Y-10567300D01*
X10708514Y-10574443D01*
X10694229Y-10581586D01*
X10644229Y-10581586D01*
X10865657Y-10660157D02*
X10794229Y-10660157D01*
X10794229Y-10510157D01*
X10944229Y-10510157D02*
X10972800Y-10510157D01*
X10987086Y-10517300D01*
X11001372Y-10531586D01*
X11008514Y-10560157D01*
X11008514Y-10610157D01*
X11001372Y-10638729D01*
X10987086Y-10653014D01*
X10972800Y-10660157D01*
X10944229Y-10660157D01*
X10929943Y-10653014D01*
X10915657Y-10638729D01*
X10908514Y-10610157D01*
X10908514Y-10560157D01*
X10915657Y-10531586D01*
X10929943Y-10517300D01*
X10944229Y-10510157D01*
X11158514Y-10645871D02*
X11151372Y-10653014D01*
X11129943Y-10660157D01*
X11115657Y-10660157D01*
X11094229Y-10653014D01*
X11079943Y-10638729D01*
X11072800Y-10624443D01*
X11065657Y-10595871D01*
X11065657Y-10574443D01*
X11072800Y-10545871D01*
X11079943Y-10531586D01*
X11094229Y-10517300D01*
X11115657Y-10510157D01*
X11129943Y-10510157D01*
X11151372Y-10517300D01*
X11158514Y-10524443D01*
X11222800Y-10660157D02*
X11222800Y-10510157D01*
X11308514Y-10660157D02*
X11244229Y-10574443D01*
X11308514Y-10510157D02*
X11222800Y-10595871D01*
X9616714Y-7331757D02*
X9616714Y-7181757D01*
X9666714Y-7288900D01*
X9716714Y-7181757D01*
X9716714Y-7331757D01*
X9788143Y-7253186D02*
X9838143Y-7253186D01*
X9859572Y-7331757D02*
X9788143Y-7331757D01*
X9788143Y-7181757D01*
X9859572Y-7181757D01*
X9916714Y-7288900D02*
X9988143Y-7288900D01*
X9902429Y-7331757D02*
X9952429Y-7181757D01*
X10002429Y-7331757D01*
X10045286Y-7324614D02*
X10066714Y-7331757D01*
X10102429Y-7331757D01*
X10116714Y-7324614D01*
X10123857Y-7317471D01*
X10131000Y-7303186D01*
X10131000Y-7288900D01*
X10123857Y-7274614D01*
X10116714Y-7267471D01*
X10102429Y-7260329D01*
X10073857Y-7253186D01*
X10059571Y-7246043D01*
X10052429Y-7238900D01*
X10045286Y-7224614D01*
X10045286Y-7210329D01*
X10052429Y-7196043D01*
X10059571Y-7188900D01*
X10073857Y-7181757D01*
X10109571Y-7181757D01*
X10131000Y-7188900D01*
X10195286Y-7317471D02*
X10202429Y-7324614D01*
X10195286Y-7331757D01*
X10188143Y-7324614D01*
X10195286Y-7317471D01*
X10195286Y-7331757D01*
X9627429Y-7508186D02*
X9648857Y-7515329D01*
X9656000Y-7522471D01*
X9663143Y-7536757D01*
X9663143Y-7558186D01*
X9656000Y-7572471D01*
X9648857Y-7579614D01*
X9634571Y-7586757D01*
X9577429Y-7586757D01*
X9577429Y-7436757D01*
X9627429Y-7436757D01*
X9641714Y-7443900D01*
X9648857Y-7451043D01*
X9656000Y-7465329D01*
X9656000Y-7479614D01*
X9648857Y-7493900D01*
X9641714Y-7501043D01*
X9627429Y-7508186D01*
X9577429Y-7508186D01*
X9798857Y-7586757D02*
X9727429Y-7586757D01*
X9727429Y-7436757D01*
X9877429Y-7436757D02*
X9906000Y-7436757D01*
X9920286Y-7443900D01*
X9934572Y-7458186D01*
X9941714Y-7486757D01*
X9941714Y-7536757D01*
X9934572Y-7565329D01*
X9920286Y-7579614D01*
X9906000Y-7586757D01*
X9877429Y-7586757D01*
X9863143Y-7579614D01*
X9848857Y-7565329D01*
X9841714Y-7536757D01*
X9841714Y-7486757D01*
X9848857Y-7458186D01*
X9863143Y-7443900D01*
X9877429Y-7436757D01*
X10091714Y-7572471D02*
X10084572Y-7579614D01*
X10063143Y-7586757D01*
X10048857Y-7586757D01*
X10027429Y-7579614D01*
X10013143Y-7565329D01*
X10006000Y-7551043D01*
X9998857Y-7522471D01*
X9998857Y-7501043D01*
X10006000Y-7472471D01*
X10013143Y-7458186D01*
X10027429Y-7443900D01*
X10048857Y-7436757D01*
X10063143Y-7436757D01*
X10084572Y-7443900D01*
X10091714Y-7451043D01*
X10156000Y-7586757D02*
X10156000Y-7436757D01*
X10241714Y-7586757D02*
X10177429Y-7501043D01*
X10241714Y-7436757D02*
X10156000Y-7522471D01*
X1971314Y-11878357D02*
X1971314Y-11728357D01*
X2021314Y-11835500D01*
X2071314Y-11728357D01*
X2071314Y-11878357D01*
X2142743Y-11799786D02*
X2192743Y-11799786D01*
X2214172Y-11878357D02*
X2142743Y-11878357D01*
X2142743Y-11728357D01*
X2214172Y-11728357D01*
X2271314Y-11835500D02*
X2342743Y-11835500D01*
X2257029Y-11878357D02*
X2307029Y-11728357D01*
X2357029Y-11878357D01*
X2399886Y-11871214D02*
X2421314Y-11878357D01*
X2457029Y-11878357D01*
X2471314Y-11871214D01*
X2478457Y-11864071D01*
X2485600Y-11849786D01*
X2485600Y-11835500D01*
X2478457Y-11821214D01*
X2471314Y-11814071D01*
X2457029Y-11806929D01*
X2428457Y-11799786D01*
X2414171Y-11792643D01*
X2407029Y-11785500D01*
X2399886Y-11771214D01*
X2399886Y-11756929D01*
X2407029Y-11742643D01*
X2414171Y-11735500D01*
X2428457Y-11728357D01*
X2464171Y-11728357D01*
X2485600Y-11735500D01*
X2549886Y-11864071D02*
X2557029Y-11871214D01*
X2549886Y-11878357D01*
X2542743Y-11871214D01*
X2549886Y-11864071D01*
X2549886Y-11878357D01*
X1982029Y-12054786D02*
X2003457Y-12061929D01*
X2010600Y-12069071D01*
X2017743Y-12083357D01*
X2017743Y-12104786D01*
X2010600Y-12119071D01*
X2003457Y-12126214D01*
X1989171Y-12133357D01*
X1932029Y-12133357D01*
X1932029Y-11983357D01*
X1982029Y-11983357D01*
X1996314Y-11990500D01*
X2003457Y-11997643D01*
X2010600Y-12011929D01*
X2010600Y-12026214D01*
X2003457Y-12040500D01*
X1996314Y-12047643D01*
X1982029Y-12054786D01*
X1932029Y-12054786D01*
X2153457Y-12133357D02*
X2082029Y-12133357D01*
X2082029Y-11983357D01*
X2232029Y-11983357D02*
X2260600Y-11983357D01*
X2274886Y-11990500D01*
X2289172Y-12004786D01*
X2296314Y-12033357D01*
X2296314Y-12083357D01*
X2289172Y-12111929D01*
X2274886Y-12126214D01*
X2260600Y-12133357D01*
X2232029Y-12133357D01*
X2217743Y-12126214D01*
X2203457Y-12111929D01*
X2196314Y-12083357D01*
X2196314Y-12033357D01*
X2203457Y-12004786D01*
X2217743Y-11990500D01*
X2232029Y-11983357D01*
X2446314Y-12119071D02*
X2439172Y-12126214D01*
X2417743Y-12133357D01*
X2403457Y-12133357D01*
X2382029Y-12126214D01*
X2367743Y-12111929D01*
X2360600Y-12097643D01*
X2353457Y-12069071D01*
X2353457Y-12047643D01*
X2360600Y-12019071D01*
X2367743Y-12004786D01*
X2382029Y-11990500D01*
X2403457Y-11983357D01*
X2417743Y-11983357D01*
X2439172Y-11990500D01*
X2446314Y-11997643D01*
X2510600Y-12133357D02*
X2510600Y-11983357D01*
X2596314Y-12133357D02*
X2532029Y-12047643D01*
X2596314Y-11983357D02*
X2510600Y-12069071D01*
D12*
X11709400Y-13309600D02*
X11709400Y-16865600D01*
X9245600Y-13309600D02*
X11709400Y-13309600D01*
X9245600Y-16865600D02*
X9245600Y-13309600D01*
X11709400Y-16865600D02*
X9245600Y-16865600D01*
X9423400Y-7747000D02*
X7467600Y-7747000D01*
X9423400Y-7924800D02*
X9423400Y-7747000D01*
X9956800Y-7924800D02*
X9423400Y-7924800D01*
X9956800Y-8509000D02*
X9956800Y-7924800D01*
X11734800Y-8509000D02*
X9956800Y-8509000D01*
X11734800Y-10845800D02*
X11734800Y-8509000D01*
X9423400Y-10845800D02*
X11734800Y-10845800D01*
X9423400Y-10998200D02*
X9423400Y-10845800D01*
X9220200Y-10998200D02*
X9423400Y-10998200D01*
X9220200Y-11049000D02*
X9220200Y-10998200D01*
X7797800Y-11049000D02*
X9220200Y-11049000D01*
X7797800Y-9499600D02*
X7797800Y-11049000D01*
X7467600Y-9499600D02*
X7797800Y-9499600D01*
X7467600Y-7747000D02*
X7467600Y-9499600D01*
X9398000Y-13233400D02*
X9398000Y-13182600D01*
X11734800Y-13233400D02*
X9398000Y-13233400D01*
X11734800Y-10922000D02*
X11734800Y-13233400D01*
X10210800Y-10922000D02*
X11734800Y-10922000D01*
X10210800Y-8204200D02*
X10210800Y-10922000D01*
X11709400Y-8204200D02*
X10210800Y-8204200D01*
X11709400Y-6781800D02*
X11709400Y-8204200D01*
X10185400Y-6781800D02*
X11709400Y-6781800D01*
X10185400Y-4673600D02*
X10185400Y-6781800D01*
X9474200Y-4673600D02*
X10185400Y-4673600D01*
X9474200Y-7848600D02*
X9474200Y-4673600D01*
X10058400Y-7848600D02*
X9474200Y-7848600D01*
X10058400Y-10922000D02*
X10058400Y-7848600D01*
X9601200Y-10922000D02*
X10058400Y-10922000D01*
X9601200Y-11074400D02*
X9601200Y-10922000D01*
X9398000Y-11074400D02*
X9601200Y-11074400D01*
X9398000Y-13208000D02*
X9398000Y-11074400D01*
X1879600Y-13208000D02*
X2108200Y-13208000D01*
X1879600Y-6807200D02*
X1879600Y-13208000D01*
X3505200Y-6807200D02*
X1879600Y-6807200D01*
X3505200Y-4699000D02*
X3505200Y-6807200D01*
X4216400Y-4699000D02*
X3505200Y-4699000D01*
X4216400Y-6604000D02*
X4216400Y-4699000D01*
X3886200Y-6604000D02*
X4216400Y-6604000D01*
X3886200Y-10566400D02*
X3886200Y-6604000D01*
X5054600Y-10566400D02*
X3886200Y-10566400D01*
X5054600Y-13208000D02*
X5054600Y-10566400D01*
X2108200Y-13208000D02*
X5054600Y-13208000D01*
D11*
X5605514Y-10913157D02*
X5605514Y-10763157D01*
X5641229Y-10763157D01*
X5662657Y-10770300D01*
X5676943Y-10784586D01*
X5684086Y-10798871D01*
X5691229Y-10827443D01*
X5691229Y-10848871D01*
X5684086Y-10877443D01*
X5676943Y-10891729D01*
X5662657Y-10906014D01*
X5641229Y-10913157D01*
X5605514Y-10913157D01*
X5841229Y-10913157D02*
X5791229Y-10841729D01*
X5755514Y-10913157D02*
X5755514Y-10763157D01*
X5812657Y-10763157D01*
X5826943Y-10770300D01*
X5834086Y-10777443D01*
X5841229Y-10791729D01*
X5841229Y-10813157D01*
X5834086Y-10827443D01*
X5826943Y-10834586D01*
X5812657Y-10841729D01*
X5755514Y-10841729D01*
X5905514Y-10913157D02*
X5905514Y-10763157D01*
X5955514Y-10763157D02*
X6005514Y-10913157D01*
X6055514Y-10763157D01*
X6105514Y-10834586D02*
X6155514Y-10834586D01*
X6176943Y-10913157D02*
X6105514Y-10913157D01*
X6105514Y-10763157D01*
X6176943Y-10763157D01*
X6326943Y-10913157D02*
X6276943Y-10841729D01*
X6241229Y-10913157D02*
X6241229Y-10763157D01*
X6298371Y-10763157D01*
X6312657Y-10770300D01*
X6319800Y-10777443D01*
X6326943Y-10791729D01*
X6326943Y-10813157D01*
X6319800Y-10827443D01*
X6312657Y-10834586D01*
X6298371Y-10841729D01*
X6241229Y-10841729D01*
X5741229Y-11089586D02*
X5762657Y-11096729D01*
X5769800Y-11103871D01*
X5776943Y-11118157D01*
X5776943Y-11139586D01*
X5769800Y-11153871D01*
X5762657Y-11161014D01*
X5748371Y-11168157D01*
X5691229Y-11168157D01*
X5691229Y-11018157D01*
X5741229Y-11018157D01*
X5755514Y-11025300D01*
X5762657Y-11032443D01*
X5769800Y-11046729D01*
X5769800Y-11061014D01*
X5762657Y-11075300D01*
X5755514Y-11082443D01*
X5741229Y-11089586D01*
X5691229Y-11089586D01*
X5912657Y-11168157D02*
X5841229Y-11168157D01*
X5841229Y-11018157D01*
X5991229Y-11018157D02*
X6019800Y-11018157D01*
X6034086Y-11025300D01*
X6048371Y-11039586D01*
X6055514Y-11068157D01*
X6055514Y-11118157D01*
X6048371Y-11146729D01*
X6034086Y-11161014D01*
X6019800Y-11168157D01*
X5991229Y-11168157D01*
X5976943Y-11161014D01*
X5962657Y-11146729D01*
X5955514Y-11118157D01*
X5955514Y-11068157D01*
X5962657Y-11039586D01*
X5976943Y-11025300D01*
X5991229Y-11018157D01*
X6205514Y-11153871D02*
X6198371Y-11161014D01*
X6176943Y-11168157D01*
X6162657Y-11168157D01*
X6141229Y-11161014D01*
X6126943Y-11146729D01*
X6119800Y-11132443D01*
X6112657Y-11103871D01*
X6112657Y-11082443D01*
X6119800Y-11053871D01*
X6126943Y-11039586D01*
X6141229Y-11025300D01*
X6162657Y-11018157D01*
X6176943Y-11018157D01*
X6198371Y-11025300D01*
X6205514Y-11032443D01*
X6269800Y-11168157D02*
X6269800Y-11018157D01*
X6355514Y-11168157D02*
X6291229Y-11082443D01*
X6355514Y-11018157D02*
X6269800Y-11103871D01*
D12*
X5207000Y-15214600D02*
X5537200Y-15214600D01*
X5207000Y-9880600D02*
X5207000Y-15214600D01*
X4267200Y-9880600D02*
X5207000Y-9880600D01*
X4267200Y-7086600D02*
X4267200Y-9880600D01*
X8356600Y-7086600D02*
X4267200Y-7086600D01*
X8356600Y-7670800D02*
X8356600Y-7086600D01*
X6959600Y-7670800D02*
X8356600Y-7670800D01*
X6959600Y-9601200D02*
X6959600Y-7670800D01*
X7721600Y-9601200D02*
X6959600Y-9601200D01*
X7721600Y-11480800D02*
X7721600Y-9601200D01*
X8356600Y-11480800D02*
X7721600Y-11480800D01*
X8356600Y-12877800D02*
X8356600Y-11480800D01*
X7620000Y-12877800D02*
X8356600Y-12877800D01*
X7620000Y-15214600D02*
X7620000Y-12877800D01*
X5537200Y-15214600D02*
X7620000Y-15214600D01*
D11*
X11192686Y-12132857D02*
X11192686Y-12032857D01*
X11192686Y-11982857D02*
X11185543Y-11990000D01*
X11192686Y-11997143D01*
X11199829Y-11990000D01*
X11192686Y-11982857D01*
X11192686Y-11997143D01*
X11256971Y-12090000D02*
X11328400Y-12090000D01*
X11242686Y-12132857D02*
X11292686Y-11982857D01*
X11342686Y-12132857D01*
X11456971Y-12032857D02*
X11456971Y-12132857D01*
X11421257Y-11975714D02*
X11385543Y-12082857D01*
X11478400Y-12082857D01*
D12*
X11049000Y-11684000D02*
X11049000Y-12446000D01*
X11049000Y-12446000D02*
X11633200Y-12446000D01*
X11633200Y-12446000D02*
X11633200Y-11684000D01*
X11633200Y-11684000D02*
X11049000Y-11684000D01*
X11049000Y-11684000D02*
X11049000Y-11734800D01*
X11049000Y-11734800D02*
X11633200Y-11734800D01*
X11125200Y-11760200D02*
G75*
G03X11125200Y-11760200I-25400J0D01*
G01*
X9956800Y-11760200D02*
G75*
G03X9956800Y-11760200I-25400J0D01*
G01*
X9880600Y-11734800D02*
X10464800Y-11734800D01*
X9880600Y-11684000D02*
X9880600Y-11734800D01*
X10464800Y-11684000D02*
X9880600Y-11684000D01*
X10464800Y-12446000D02*
X10464800Y-11684000D01*
X9880600Y-12446000D02*
X10464800Y-12446000D01*
X9880600Y-11684000D02*
X9880600Y-12446000D01*
D11*
X10024286Y-12132857D02*
X10024286Y-12032857D01*
X10024286Y-11982857D02*
X10017143Y-11990000D01*
X10024286Y-11997143D01*
X10031429Y-11990000D01*
X10024286Y-11982857D01*
X10024286Y-11997143D01*
X10088572Y-12090000D02*
X10160000Y-12090000D01*
X10074286Y-12132857D02*
X10124286Y-11982857D01*
X10174286Y-12132857D01*
X10217143Y-11997143D02*
X10224286Y-11990000D01*
X10238572Y-11982857D01*
X10274286Y-11982857D01*
X10288572Y-11990000D01*
X10295714Y-11997143D01*
X10302857Y-12011429D01*
X10302857Y-12025714D01*
X10295714Y-12047143D01*
X10210000Y-12132857D01*
X10302857Y-12132857D01*
X4334686Y-12056657D02*
X4334686Y-11956657D01*
X4334686Y-11906657D02*
X4327543Y-11913800D01*
X4334686Y-11920943D01*
X4341829Y-11913800D01*
X4334686Y-11906657D01*
X4334686Y-11920943D01*
X4398972Y-12013800D02*
X4470400Y-12013800D01*
X4384686Y-12056657D02*
X4434686Y-11906657D01*
X4484686Y-12056657D01*
X4613257Y-12056657D02*
X4527543Y-12056657D01*
X4570400Y-12056657D02*
X4570400Y-11906657D01*
X4556114Y-11928086D01*
X4541829Y-11942371D01*
X4527543Y-11949514D01*
X3013886Y-12082057D02*
X3013886Y-11982057D01*
X3013886Y-11932057D02*
X3006743Y-11939200D01*
X3013886Y-11946343D01*
X3021029Y-11939200D01*
X3013886Y-11932057D01*
X3013886Y-11946343D01*
X3078171Y-12039200D02*
X3149600Y-12039200D01*
X3063886Y-12082057D02*
X3113886Y-11932057D01*
X3163886Y-12082057D01*
X3199600Y-11932057D02*
X3292457Y-11932057D01*
X3242457Y-11989200D01*
X3263886Y-11989200D01*
X3278171Y-11996343D01*
X3285314Y-12003486D01*
X3292457Y-12017771D01*
X3292457Y-12053486D01*
X3285314Y-12067771D01*
X3278171Y-12074914D01*
X3263886Y-12082057D01*
X3221029Y-12082057D01*
X3206743Y-12074914D01*
X3199600Y-12067771D01*
D12*
X4191000Y-11607800D02*
X4191000Y-12369800D01*
X4191000Y-12369800D02*
X4775200Y-12369800D01*
X4775200Y-12369800D02*
X4775200Y-11607800D01*
X4775200Y-11607800D02*
X4191000Y-11607800D01*
X4191000Y-11607800D02*
X4191000Y-11658600D01*
X4191000Y-11658600D02*
X4775200Y-11658600D01*
X4267200Y-11684000D02*
G75*
G03X4267200Y-11684000I-25400J0D01*
G01*
X2946400Y-11684000D02*
G75*
G03X2946400Y-11684000I-25400J0D01*
G01*
X2870200Y-11658600D02*
X3454400Y-11658600D01*
X2870200Y-11607800D02*
X2870200Y-11658600D01*
X3454400Y-11607800D02*
X2870200Y-11607800D01*
X3454400Y-12369800D02*
X3454400Y-11607800D01*
X2870200Y-12369800D02*
X3454400Y-12369800D01*
X2870200Y-11607800D02*
X2870200Y-12369800D01*
D13*
X6048820Y-8237596D02*
X6150420Y-8237596D01*
X5566220Y-8237596D02*
X5439220Y-8237596D01*
X5591620Y-8110596D02*
X5591620Y-8364596D01*
X5617020Y-8110596D02*
X5617020Y-8364596D01*
X5642420Y-8110596D02*
X5642420Y-8364596D01*
X5566220Y-8110596D02*
X5566220Y-8364596D01*
X5667820Y-8110596D02*
X5540820Y-8364596D01*
X5540820Y-8110596D02*
X5667820Y-8364596D01*
X5667820Y-8110596D02*
X5667820Y-8364596D01*
X5604320Y-8110596D02*
X5604320Y-8364596D01*
X5540820Y-8364596D02*
X5540820Y-8110596D01*
X5540820Y-8110596D02*
X6048820Y-8110596D01*
X6048820Y-8110596D02*
X6048820Y-8364596D01*
X6048820Y-8364596D02*
X5540820Y-8364596D01*
X7264400Y-10490200D02*
X7264400Y-10998200D01*
X7264400Y-10998200D02*
X7010400Y-10998200D01*
X7010400Y-10998200D02*
X7010400Y-10490200D01*
X7010400Y-10490200D02*
X7264400Y-10490200D01*
X7137400Y-10490200D02*
X7137400Y-10363200D01*
X7137400Y-10998200D02*
X7137400Y-11125200D01*
X7574280Y-10276840D02*
X7574280Y-10784840D01*
X7574280Y-10784840D02*
X7320280Y-10784840D01*
X7320280Y-10784840D02*
X7320280Y-10276840D01*
X7320280Y-10276840D02*
X7574280Y-10276840D01*
X7447280Y-10276840D02*
X7447280Y-10149840D01*
X7447280Y-10784840D02*
X7447280Y-10911840D01*
X8905440Y-9394640D02*
X8905440Y-9280340D01*
X8600640Y-9394640D02*
X8600640Y-9280340D01*
X8219640Y-9280340D02*
X8219640Y-8912040D01*
X8219640Y-8912040D02*
X9286440Y-8912040D01*
X9286440Y-8912040D02*
X9286440Y-9280340D01*
X8219640Y-9394640D02*
X8219640Y-9280340D01*
X8219640Y-9280340D02*
X9286440Y-9280340D01*
X9286440Y-9280340D02*
X9286440Y-9394640D01*
X8753040Y-9394640D02*
X9286440Y-9394640D01*
X8753040Y-9394640D02*
X8219640Y-9394640D01*
X5214760Y-8470590D02*
X5914760Y-8470590D01*
X5914760Y-8470590D02*
X5914760Y-8670590D01*
X5914760Y-8670590D02*
X5214760Y-8670590D01*
X5214760Y-8670590D02*
X5214760Y-8470590D01*
X11546840Y-2423160D02*
X11546840Y-6741160D01*
X11546840Y-6741160D02*
X10276840Y-6741160D01*
X10276840Y-6741160D02*
X10276840Y-2423160D01*
X10276840Y-2423160D02*
X11546840Y-2423160D01*
X3424428Y-2395220D02*
X3424428Y-6713220D01*
X3424428Y-6713220D02*
X2154428Y-6713220D01*
X2154428Y-6713220D02*
X2154428Y-2395220D01*
X2154428Y-2395220D02*
X3424428Y-2395220D01*
X11780050Y-9910088D02*
X11780050Y-9009912D01*
X12130062Y-9910088D02*
X12130062Y-9009912D01*
X12130062Y-9009912D02*
X10679976Y-9009912D01*
X10679976Y-9009912D02*
X10679976Y-9910088D01*
X10679976Y-9910088D02*
X12130062Y-9910088D01*
X11790426Y-16595344D02*
X11790426Y-15695168D01*
X12140438Y-16595344D02*
X12140438Y-15695168D01*
X12140438Y-15695168D02*
X10690352Y-15695168D01*
X10690352Y-15695168D02*
X10690352Y-16595344D01*
X10690352Y-16595344D02*
X12140438Y-16595344D01*
X9613294Y-10431840D02*
X9613294Y-10533440D01*
X9613294Y-9949240D02*
X9613294Y-9822240D01*
X9740294Y-9974640D02*
X9486294Y-9974640D01*
X9740294Y-10000040D02*
X9486294Y-10000040D01*
X9740294Y-10025440D02*
X9486294Y-10025440D01*
X9740294Y-9949240D02*
X9486294Y-9949240D01*
X9740294Y-10050840D02*
X9486294Y-9923840D01*
X9740294Y-9923840D02*
X9486294Y-10050840D01*
X9740294Y-10050840D02*
X9486294Y-10050840D01*
X9740294Y-9987340D02*
X9486294Y-9987340D01*
X9486294Y-9923840D02*
X9740294Y-9923840D01*
X9740294Y-9923840D02*
X9740294Y-10431840D01*
X9740294Y-10431840D02*
X9486294Y-10431840D01*
X9486294Y-10431840D02*
X9486294Y-9923840D01*
X9612786Y-8327840D02*
X9612786Y-8226240D01*
X9612786Y-8810440D02*
X9612786Y-8937440D01*
X9485786Y-8785040D02*
X9739786Y-8785040D01*
X9485786Y-8759640D02*
X9739786Y-8759640D01*
X9485786Y-8734240D02*
X9739786Y-8734240D01*
X9485786Y-8810440D02*
X9739786Y-8810440D01*
X9485786Y-8708840D02*
X9739786Y-8835840D01*
X9485786Y-8835840D02*
X9739786Y-8708840D01*
X9485786Y-8708840D02*
X9739786Y-8708840D01*
X9485786Y-8772340D02*
X9739786Y-8772340D01*
X9739786Y-8835840D02*
X9485786Y-8835840D01*
X9485786Y-8835840D02*
X9485786Y-8327840D01*
X9485786Y-8327840D02*
X9739786Y-8327840D01*
X9739786Y-8327840D02*
X9739786Y-8835840D01*
X9713722Y-14432280D02*
X9713722Y-14330680D01*
X9713722Y-14914880D02*
X9713722Y-15041880D01*
X9586722Y-14889480D02*
X9840722Y-14889480D01*
X9586722Y-14864080D02*
X9840722Y-14864080D01*
X9586722Y-14838680D02*
X9840722Y-14838680D01*
X9586722Y-14914880D02*
X9840722Y-14914880D01*
X9586722Y-14813280D02*
X9840722Y-14940280D01*
X9586722Y-14940280D02*
X9840722Y-14813280D01*
X9586722Y-14813280D02*
X9840722Y-14813280D01*
X9586722Y-14876780D02*
X9840722Y-14876780D01*
X9840722Y-14940280D02*
X9586722Y-14940280D01*
X9586722Y-14940280D02*
X9586722Y-14432280D01*
X9586722Y-14432280D02*
X9840722Y-14432280D01*
X9840722Y-14432280D02*
X9840722Y-14940280D01*
X4824910Y-9604840D02*
X4951910Y-9604840D01*
X4824910Y-8869840D02*
X4951910Y-8869840D01*
X6807910Y-8869840D02*
X6680910Y-8869840D01*
X6807910Y-9604840D02*
X6680910Y-9604840D01*
X4824910Y-9604840D02*
X4824910Y-8869840D01*
X6807910Y-9604840D02*
X6807910Y-8869840D01*
X4951910Y-9604840D02*
X4951910Y-9733340D01*
X8905440Y-9994640D02*
X8905440Y-9880340D01*
X8600640Y-9994640D02*
X8600640Y-9880340D01*
X8219640Y-9880340D02*
X8219640Y-9512040D01*
X8219640Y-9512040D02*
X9286440Y-9512040D01*
X9286440Y-9512040D02*
X9286440Y-9880340D01*
X8219640Y-9994640D02*
X8219640Y-9880340D01*
X8219640Y-9880340D02*
X9286440Y-9880340D01*
X9286440Y-9880340D02*
X9286440Y-9994640D01*
X8753040Y-9994640D02*
X9286440Y-9994640D01*
X8753040Y-9994640D02*
X8219640Y-9994640D01*
X10350516Y-13942560D02*
X10350516Y-14056860D01*
X10655316Y-13942560D02*
X10655316Y-14056860D01*
X11036316Y-14056860D02*
X11036316Y-14425160D01*
X11036316Y-14425160D02*
X9969516Y-14425160D01*
X9969516Y-14425160D02*
X9969516Y-14056860D01*
X11036316Y-13942560D02*
X11036316Y-14056860D01*
X11036316Y-14056860D02*
X9969516Y-14056860D01*
X9969516Y-14056860D02*
X9969516Y-13942560D01*
X10502916Y-13942560D02*
X9969516Y-13942560D01*
X10502916Y-13942560D02*
X11036316Y-13942560D01*
X10615916Y-13430360D02*
X10107916Y-13430360D01*
X10107916Y-13430360D02*
X10107916Y-13684360D01*
X10107916Y-13684360D02*
X10615916Y-13684360D01*
X10897916Y-13712360D02*
X10742916Y-13712360D01*
X10615916Y-13684360D02*
X10615916Y-13430360D01*
X10742916Y-13402360D02*
X10897916Y-13402360D01*
X10897916Y-13402360D02*
X10897916Y-13712360D01*
X5875020Y-12602210D02*
X5875020Y-12348210D01*
X5847020Y-12884210D02*
X5847020Y-12729210D01*
X5875020Y-12602210D02*
X6129020Y-12602210D01*
X6157020Y-12729210D02*
X6157020Y-12884210D01*
X6157020Y-12884210D02*
X5847020Y-12884210D01*
X6129020Y-12602210D02*
X6129020Y-12348210D01*
X6129020Y-12348210D02*
X5875020Y-12348210D01*
X6916928Y-13256006D02*
X6916928Y-13002006D01*
X6888928Y-13538006D02*
X6888928Y-13383006D01*
X6916928Y-13256006D02*
X7170928Y-13256006D01*
X7198928Y-13383006D02*
X7198928Y-13538006D01*
X7198928Y-13538006D02*
X6888928Y-13538006D01*
X7170928Y-13256006D02*
X7170928Y-13002006D01*
X7170928Y-13002006D02*
X6916928Y-13002006D01*
X6192520Y-12602210D02*
X6192520Y-12348210D01*
X6164520Y-12884210D02*
X6164520Y-12729210D01*
X6192520Y-12602210D02*
X6446520Y-12602210D01*
X6474520Y-12729210D02*
X6474520Y-12884210D01*
X6474520Y-12884210D02*
X6164520Y-12884210D01*
X6446520Y-12602210D02*
X6446520Y-12348210D01*
X6446520Y-12348210D02*
X6192520Y-12348210D01*
X6599428Y-13256006D02*
X6599428Y-13002006D01*
X6571428Y-13538006D02*
X6571428Y-13383006D01*
X6599428Y-13256006D02*
X6853428Y-13256006D01*
X6881428Y-13383006D02*
X6881428Y-13538006D01*
X6881428Y-13538006D02*
X6571428Y-13538006D01*
X6853428Y-13256006D02*
X6853428Y-13002006D01*
X6853428Y-13002006D02*
X6599428Y-13002006D01*
X8144440Y-10529740D02*
X8124440Y-10529740D01*
X7885040Y-10529740D02*
X7903040Y-10529740D01*
X7916076Y-10206966D02*
G75*
G03X7884440Y-10529740I100364J-172774D01*
G01*
X7903133Y-10274539D02*
G75*
G03X7903040Y-10484840I113307J-105201D01*
G01*
X8147113Y-10528462D02*
G75*
G03X8112440Y-10204740I-130673J149722D01*
G01*
X8124365Y-10481129D02*
G75*
G03X8122440Y-10276340I-107925J101389D01*
G01*
X7881640Y-8289940D02*
X7901640Y-8289940D01*
X8141040Y-8289940D02*
X8123040Y-8289940D01*
X8110004Y-8612714D02*
G75*
G03X8141640Y-8289940I-100364J172774D01*
G01*
X8122947Y-8545141D02*
G75*
G03X8123040Y-8334840I-113307J105201D01*
G01*
X7878967Y-8291218D02*
G75*
G03X7913640Y-8614940I130673J-149722D01*
G01*
X7901715Y-8338551D02*
G75*
G03X7903640Y-8543340I107925J-101389D01*
G01*
X11459316Y-14812260D02*
X11439316Y-14812260D01*
X11199916Y-14812260D02*
X11217916Y-14812260D01*
X11230952Y-14489486D02*
G75*
G03X11199316Y-14812260I100364J-172774D01*
G01*
X11218009Y-14557059D02*
G75*
G03X11217916Y-14767360I113307J-105201D01*
G01*
X11461989Y-14810982D02*
G75*
G03X11427316Y-14487260I-130673J149722D01*
G01*
X11439241Y-14763649D02*
G75*
G03X11437316Y-14558860I-107925J101389D01*
G01*
X6901550Y-12462980D02*
X7028550Y-12462980D01*
X6901550Y-11727980D02*
X7028550Y-11727980D01*
X8122550Y-11727980D02*
X7995550Y-11727980D01*
X8122550Y-12462980D02*
X7995550Y-12462980D01*
X6901550Y-12462980D02*
X6901550Y-11727980D01*
X8122550Y-12462980D02*
X8122550Y-11727980D01*
X7028550Y-12462980D02*
X7028550Y-12591480D01*
X11375390Y-7565390D02*
X11375390Y-7438390D01*
X11296650Y-7490460D02*
X11300460Y-7515860D01*
X11300460Y-7515860D02*
X11318240Y-7543800D01*
X11318240Y-7543800D02*
X11349990Y-7565390D01*
X11349990Y-7565390D02*
X11394440Y-7566660D01*
X11394440Y-7566660D02*
X11430000Y-7546340D01*
X11430000Y-7546340D02*
X11447780Y-7517130D01*
X11447780Y-7517130D02*
X11452860Y-7485380D01*
X11452860Y-7485380D02*
X11442700Y-7444740D01*
X11442700Y-7444740D02*
X11408410Y-7419340D01*
X11408410Y-7419340D02*
X11390630Y-7410450D01*
X10537190Y-7184390D02*
X11502390Y-7184390D01*
X11502390Y-7489190D02*
X11502390Y-7616190D01*
X11502390Y-7616190D02*
X10537190Y-7616190D01*
X10537190Y-7616190D02*
X10537190Y-7108190D01*
X11502390Y-7108190D02*
X11502390Y-7362190D01*
X11502390Y-7362190D02*
X11502390Y-7489190D01*
X3094482Y-7629398D02*
X3094482Y-7502398D01*
X3015742Y-7554468D02*
X3019552Y-7579868D01*
X3019552Y-7579868D02*
X3037332Y-7607808D01*
X3037332Y-7607808D02*
X3069082Y-7629398D01*
X3069082Y-7629398D02*
X3113532Y-7630668D01*
X3113532Y-7630668D02*
X3149092Y-7610348D01*
X3149092Y-7610348D02*
X3166872Y-7581138D01*
X3166872Y-7581138D02*
X3171952Y-7549388D01*
X3171952Y-7549388D02*
X3161792Y-7508748D01*
X3161792Y-7508748D02*
X3127502Y-7483348D01*
X3127502Y-7483348D02*
X3109722Y-7474458D01*
X2256282Y-7248398D02*
X3221482Y-7248398D01*
X3221482Y-7553198D02*
X3221482Y-7680198D01*
X3221482Y-7680198D02*
X2256282Y-7680198D01*
X2256282Y-7680198D02*
X2256282Y-7172198D01*
X3221482Y-7172198D02*
X3221482Y-7426198D01*
X3221482Y-7426198D02*
X3221482Y-7553198D01*
X8527040Y-10722840D02*
X9035040Y-10722840D01*
X9035040Y-10722840D02*
X9035040Y-10976840D01*
X9035040Y-10976840D02*
X8527040Y-10976840D01*
X8527040Y-10976840D02*
X8527040Y-10722840D01*
X8527040Y-10849840D02*
X8400040Y-10849840D01*
X9035040Y-10849840D02*
X9162040Y-10849840D01*
X8527040Y-7842840D02*
X9035040Y-7842840D01*
X9035040Y-7842840D02*
X9035040Y-8096840D01*
X9035040Y-8096840D02*
X8527040Y-8096840D01*
X8527040Y-8096840D02*
X8527040Y-7842840D01*
X8527040Y-7969840D02*
X8400040Y-7969840D01*
X9035040Y-7969840D02*
X9162040Y-7969840D01*
X9545320Y-5659120D02*
X9659620Y-5659120D01*
X9545320Y-5354320D02*
X9659620Y-5354320D01*
X9659620Y-4973320D02*
X10027920Y-4973320D01*
X10027920Y-4973320D02*
X10027920Y-6040120D01*
X10027920Y-6040120D02*
X9659620Y-6040120D01*
X9545320Y-4973320D02*
X9659620Y-4973320D01*
X9659620Y-4973320D02*
X9659620Y-6040120D01*
X9659620Y-6040120D02*
X9545320Y-6040120D01*
X9545320Y-5506720D02*
X9545320Y-6040120D01*
X9545320Y-5506720D02*
X9545320Y-4973320D01*
X4079240Y-5323840D02*
X3964940Y-5323840D01*
X4079240Y-5628640D02*
X3964940Y-5628640D01*
X3964940Y-6009640D02*
X3596640Y-6009640D01*
X3596640Y-6009640D02*
X3596640Y-4942840D01*
X3596640Y-4942840D02*
X3964940Y-4942840D01*
X4079240Y-6009640D02*
X3964940Y-6009640D01*
X3964940Y-6009640D02*
X3964940Y-4942840D01*
X3964940Y-4942840D02*
X4079240Y-4942840D01*
X4079240Y-5476240D02*
X4079240Y-4942840D01*
X4079240Y-5476240D02*
X4079240Y-6009640D01*
X11075416Y-15300960D02*
X10567416Y-15300960D01*
X10567416Y-15300960D02*
X10567416Y-15046960D01*
X10567416Y-15046960D02*
X11075416Y-15046960D01*
X11075416Y-15046960D02*
X11075416Y-15300960D01*
X11075416Y-15173960D02*
X11202416Y-15173960D01*
X10567416Y-15173960D02*
X10440416Y-15173960D01*
X7826000Y-7527000D02*
X7318000Y-7527000D01*
X7318000Y-7527000D02*
X7318000Y-7273000D01*
X7318000Y-7273000D02*
X7826000Y-7273000D01*
X7826000Y-7273000D02*
X7826000Y-7527000D01*
X7826000Y-7400000D02*
X7953000Y-7400000D01*
X7318000Y-7400000D02*
X7191000Y-7400000D01*
X5034000Y-7293000D02*
X5542000Y-7293000D01*
X5542000Y-7293000D02*
X5542000Y-7547000D01*
X5542000Y-7547000D02*
X5034000Y-7547000D01*
X5034000Y-7547000D02*
X5034000Y-7293000D01*
X5034000Y-7420000D02*
X4907000Y-7420000D01*
X5542000Y-7420000D02*
X5669000Y-7420000D01*
X5870448Y-14564106D02*
X5870448Y-14056106D01*
X5870448Y-14056106D02*
X6124448Y-14056106D01*
X6124448Y-14056106D02*
X6124448Y-14564106D01*
X6124448Y-14564106D02*
X5870448Y-14564106D01*
X5997448Y-14564106D02*
X5997448Y-14691106D01*
X5997448Y-14056106D02*
X5997448Y-13929106D01*
X6929628Y-14576806D02*
X6929628Y-14068806D01*
X6929628Y-14068806D02*
X7183628Y-14068806D01*
X7183628Y-14068806D02*
X7183628Y-14576806D01*
X7183628Y-14576806D02*
X6929628Y-14576806D01*
X7056628Y-14576806D02*
X7056628Y-14703806D01*
X7056628Y-14068806D02*
X7056628Y-13941806D01*
X6187948Y-14564106D02*
X6187948Y-14056106D01*
X6187948Y-14056106D02*
X6441948Y-14056106D01*
X6441948Y-14056106D02*
X6441948Y-14564106D01*
X6441948Y-14564106D02*
X6187948Y-14564106D01*
X6314948Y-14564106D02*
X6314948Y-14691106D01*
X6314948Y-14056106D02*
X6314948Y-13929106D01*
X6612128Y-14576806D02*
X6612128Y-14068806D01*
X6612128Y-14068806D02*
X6866128Y-14068806D01*
X6866128Y-14068806D02*
X6866128Y-14576806D01*
X6866128Y-14576806D02*
X6612128Y-14576806D01*
X6739128Y-14576806D02*
X6739128Y-14703806D01*
X6739128Y-14068806D02*
X6739128Y-13941806D01*
X10754360Y-6812280D02*
X11262360Y-6812280D01*
X11262360Y-6812280D02*
X11262360Y-7066280D01*
X11262360Y-7066280D02*
X10754360Y-7066280D01*
X10754360Y-7066280D02*
X10754360Y-6812280D01*
X10754360Y-6939280D02*
X10627360Y-6939280D01*
X11262360Y-6939280D02*
X11389360Y-6939280D01*
X11290808Y-7972552D02*
X10782808Y-7972552D01*
X10782808Y-7972552D02*
X10782808Y-7718552D01*
X10782808Y-7718552D02*
X11290808Y-7718552D01*
X11290808Y-7718552D02*
X11290808Y-7972552D01*
X11290808Y-7845552D02*
X11417808Y-7845552D01*
X10782808Y-7845552D02*
X10655808Y-7845552D01*
X3005582Y-7121398D02*
X2497582Y-7121398D01*
X2497582Y-7121398D02*
X2497582Y-6867398D01*
X2497582Y-6867398D02*
X3005582Y-6867398D01*
X3005582Y-6867398D02*
X3005582Y-7121398D01*
X3005582Y-6994398D02*
X3132582Y-6994398D01*
X2497582Y-6994398D02*
X2370582Y-6994398D01*
X2503170Y-7810754D02*
X3011170Y-7810754D01*
X3011170Y-7810754D02*
X3011170Y-8064754D01*
X3011170Y-8064754D02*
X2503170Y-8064754D01*
X2503170Y-8064754D02*
X2503170Y-7810754D01*
X2503170Y-7937754D02*
X2376170Y-7937754D01*
X3011170Y-7937754D02*
X3138170Y-7937754D01*
X9835040Y-3945580D02*
X8585040Y-3945580D01*
X9834640Y-3959580D02*
X8585440Y-3959580D01*
X9834040Y-3973580D02*
X8586040Y-3973580D01*
X9833040Y-3987580D02*
X8587040Y-3987580D01*
X9831840Y-4001580D02*
X8588240Y-4001580D01*
X9830240Y-4015580D02*
X8589840Y-4015580D01*
X9828340Y-4029580D02*
X8591740Y-4029580D01*
X9826040Y-4043580D02*
X8594040Y-4043580D01*
X9823540Y-4057580D02*
X8596540Y-4057580D01*
X9820640Y-4071580D02*
X8599440Y-4071580D01*
X9817340Y-4085580D02*
X9262140Y-4085580D01*
X9157940Y-4085580D02*
X8602740Y-4085580D01*
X9813840Y-4099580D02*
X9283440Y-4099580D01*
X9136640Y-4099580D02*
X8606240Y-4099580D01*
X9809940Y-4113580D02*
X9297640Y-4113580D01*
X9122440Y-4113580D02*
X8610140Y-4113580D01*
X9805640Y-4127580D02*
X9307840Y-4127580D01*
X9112240Y-4127580D02*
X8614440Y-4127580D01*
X9800940Y-4141580D02*
X9315240Y-4141580D01*
X9104840Y-4141580D02*
X8619140Y-4141580D01*
X9795940Y-4155580D02*
X9320340Y-4155580D01*
X9099740Y-4155580D02*
X8624140Y-4155580D01*
X9790540Y-4169580D02*
X9323540Y-4169580D01*
X9096540Y-4169580D02*
X8629540Y-4169580D01*
X9784840Y-4183580D02*
X9324940Y-4183580D01*
X9095140Y-4183580D02*
X8635240Y-4183580D01*
X9778640Y-4197580D02*
X9324640Y-4197580D01*
X9095440Y-4197580D02*
X8641440Y-4197580D01*
X9772040Y-4211580D02*
X9322640Y-4211580D01*
X9097440Y-4211580D02*
X8648040Y-4211580D01*
X9764940Y-4225580D02*
X9318740Y-4225580D01*
X9101340Y-4225580D02*
X8655140Y-4225580D01*
X9757540Y-4239580D02*
X9312840Y-4239580D01*
X9107240Y-4239580D02*
X8662540Y-4239580D01*
X9749540Y-4253580D02*
X9304540Y-4253580D01*
X9115540Y-4253580D02*
X8670540Y-4253580D01*
X9741140Y-4267580D02*
X9293140Y-4267580D01*
X9126940Y-4267580D02*
X8678940Y-4267580D01*
X9732140Y-4281580D02*
X9277040Y-4281580D01*
X9143040Y-4281580D02*
X8687940Y-4281580D01*
X9722740Y-4295580D02*
X9250940Y-4295580D01*
X9169140Y-4295580D02*
X8697340Y-4295580D01*
X9712640Y-4309580D02*
X8707440Y-4309580D01*
X9701940Y-4323580D02*
X8718140Y-4323580D01*
X9690740Y-4337580D02*
X8729340Y-4337580D01*
X9678740Y-4351580D02*
X8741340Y-4351580D01*
X9665940Y-4365580D02*
X8754140Y-4365580D01*
X9652440Y-4379580D02*
X8767640Y-4379580D01*
X9638040Y-4393580D02*
X8782040Y-4393580D01*
X9622540Y-4407580D02*
X8797540Y-4407580D01*
X9606040Y-4421580D02*
X8814040Y-4421580D01*
X9588340Y-4435580D02*
X8831740Y-4435580D01*
X9569240Y-4449580D02*
X8850840Y-4449580D01*
X9548340Y-4463580D02*
X8871740Y-4463580D01*
X9525540Y-4477580D02*
X8894540Y-4477580D01*
X9500340Y-4491580D02*
X8919740Y-4491580D01*
X9471940Y-4505580D02*
X8948140Y-4505580D01*
X9439140Y-4519580D02*
X8980940Y-4519580D01*
X9399740Y-4533580D02*
X9020340Y-4533580D01*
X9348340Y-4547580D02*
X9071740Y-4547580D01*
X9253340Y-4561580D02*
X9166740Y-4561580D01*
X9325040Y-4188080D02*
G75*
G03X9325040Y-4188080I-115000J0D01*
G01*
X9838790Y-3938080D02*
G75*
G03X9838790Y-3938080I-628750J0D01*
G01*
X5171600Y-3965900D02*
X3921600Y-3965900D01*
X5171200Y-3979900D02*
X3922000Y-3979900D01*
X5170600Y-3993900D02*
X3922600Y-3993900D01*
X5169600Y-4007900D02*
X3923600Y-4007900D01*
X5168400Y-4021900D02*
X3924800Y-4021900D01*
X5166800Y-4035900D02*
X3926400Y-4035900D01*
X5164900Y-4049900D02*
X3928300Y-4049900D01*
X5162600Y-4063900D02*
X3930600Y-4063900D01*
X5160100Y-4077900D02*
X3933100Y-4077900D01*
X5157200Y-4091900D02*
X3936000Y-4091900D01*
X5153900Y-4105900D02*
X4598700Y-4105900D01*
X4494500Y-4105900D02*
X3939300Y-4105900D01*
X5150400Y-4119900D02*
X4620000Y-4119900D01*
X4473200Y-4119900D02*
X3942800Y-4119900D01*
X5146500Y-4133900D02*
X4634200Y-4133900D01*
X4459000Y-4133900D02*
X3946700Y-4133900D01*
X5142200Y-4147900D02*
X4644400Y-4147900D01*
X4448800Y-4147900D02*
X3951000Y-4147900D01*
X5137500Y-4161900D02*
X4651800Y-4161900D01*
X4441400Y-4161900D02*
X3955700Y-4161900D01*
X5132500Y-4175900D02*
X4656900Y-4175900D01*
X4436300Y-4175900D02*
X3960700Y-4175900D01*
X5127100Y-4189900D02*
X4660100Y-4189900D01*
X4433100Y-4189900D02*
X3966100Y-4189900D01*
X5121400Y-4203900D02*
X4661500Y-4203900D01*
X4431700Y-4203900D02*
X3971800Y-4203900D01*
X5115200Y-4217900D02*
X4661200Y-4217900D01*
X4432000Y-4217900D02*
X3978000Y-4217900D01*
X5108600Y-4231900D02*
X4659200Y-4231900D01*
X4434000Y-4231900D02*
X3984600Y-4231900D01*
X5101500Y-4245900D02*
X4655300Y-4245900D01*
X4437900Y-4245900D02*
X3991700Y-4245900D01*
X5094100Y-4259900D02*
X4649400Y-4259900D01*
X4443800Y-4259900D02*
X3999100Y-4259900D01*
X5086100Y-4273900D02*
X4641100Y-4273900D01*
X4452100Y-4273900D02*
X4007100Y-4273900D01*
X5077700Y-4287900D02*
X4629700Y-4287900D01*
X4463500Y-4287900D02*
X4015500Y-4287900D01*
X5068700Y-4301900D02*
X4613600Y-4301900D01*
X4479600Y-4301900D02*
X4024500Y-4301900D01*
X5059300Y-4315900D02*
X4587500Y-4315900D01*
X4505700Y-4315900D02*
X4033900Y-4315900D01*
X5049200Y-4329900D02*
X4044000Y-4329900D01*
X5038500Y-4343900D02*
X4054700Y-4343900D01*
X5027300Y-4357900D02*
X4065900Y-4357900D01*
X5015300Y-4371900D02*
X4077900Y-4371900D01*
X5002500Y-4385900D02*
X4090700Y-4385900D01*
X4989000Y-4399900D02*
X4104200Y-4399900D01*
X4974600Y-4413900D02*
X4118600Y-4413900D01*
X4959100Y-4427900D02*
X4134100Y-4427900D01*
X4942600Y-4441900D02*
X4150600Y-4441900D01*
X4924900Y-4455900D02*
X4168300Y-4455900D01*
X4905800Y-4469900D02*
X4187400Y-4469900D01*
X4884900Y-4483900D02*
X4208300Y-4483900D01*
X4862100Y-4497900D02*
X4231100Y-4497900D01*
X4836900Y-4511900D02*
X4256300Y-4511900D01*
X4808500Y-4525900D02*
X4284700Y-4525900D01*
X4775700Y-4539900D02*
X4317500Y-4539900D01*
X4736300Y-4553900D02*
X4356900Y-4553900D01*
X4684900Y-4567900D02*
X4408300Y-4567900D01*
X4589900Y-4581900D02*
X4503300Y-4581900D01*
X4661600Y-4208400D02*
G75*
G03X4661600Y-4208400I-115000J0D01*
G01*
X5175350Y-3958400D02*
G75*
G03X5175350Y-3958400I-628750J0D01*
G01*
X7882540Y-6429160D02*
X7882540Y-6558700D01*
X7626000Y-6434240D02*
X7626000Y-6563780D01*
X8134000Y-6434240D02*
X8134000Y-6568860D01*
X7801260Y-4884840D02*
X7834280Y-4877220D01*
X7730140Y-4917860D02*
X7763160Y-4900080D01*
X7674260Y-4976280D02*
X7699660Y-4948340D01*
X7638700Y-5047400D02*
X7651400Y-5016920D01*
X7628540Y-5131220D02*
X7631080Y-5093120D01*
X7643780Y-5209960D02*
X7633620Y-5176940D01*
X7686960Y-5283620D02*
X7666640Y-5253140D01*
X7747920Y-5336960D02*
X7719980Y-5316640D01*
X7839360Y-5369980D02*
X7791100Y-5357280D01*
X7920640Y-5372520D02*
X7880000Y-5375060D01*
X8004460Y-5342040D02*
X7963820Y-5359820D01*
X8067960Y-5288700D02*
X8037480Y-5319180D01*
X8113680Y-5217580D02*
X8093360Y-5255680D01*
X8131460Y-5136300D02*
X8123840Y-5176940D01*
X8123840Y-5060100D02*
X8126380Y-5093120D01*
X8088280Y-4981360D02*
X8106060Y-5014380D01*
X8029860Y-4917860D02*
X8057800Y-4945800D01*
X7956200Y-4884840D02*
X7991760Y-4900080D01*
X7882540Y-4872140D02*
X7915560Y-4874680D01*
X7346600Y-6380900D02*
X7346600Y-6431700D01*
X7346600Y-6279300D02*
X7346600Y-6330100D01*
X7346600Y-6165000D02*
X7346600Y-6228500D01*
X7346600Y-6038000D02*
X7346600Y-6114200D01*
X7346600Y-5898300D02*
X7346600Y-5974500D01*
X7346600Y-5771300D02*
X7346600Y-5847500D01*
X7346600Y-5644300D02*
X7346600Y-5707800D01*
X7346600Y-5479200D02*
X7346600Y-5580800D01*
X7346600Y-5339500D02*
X7346600Y-5415700D01*
X7346600Y-5199800D02*
X7346600Y-5276000D01*
X7346600Y-5060100D02*
X7346600Y-5149000D01*
X7346600Y-4920400D02*
X7346600Y-4996600D01*
X7346600Y-4780700D02*
X7346600Y-4856900D01*
X8413400Y-6380900D02*
X8413400Y-6431700D01*
X8413400Y-6279300D02*
X8413400Y-6330100D01*
X8413400Y-6165000D02*
X8413400Y-6228500D01*
X8413400Y-6038000D02*
X8413400Y-6114200D01*
X8413400Y-5898300D02*
X8413400Y-5974500D01*
X8413400Y-5771300D02*
X8413400Y-5847500D01*
X8413400Y-5644300D02*
X8413400Y-5707800D01*
X8413400Y-5479200D02*
X8413400Y-5580800D01*
X8413400Y-5339500D02*
X8413400Y-5415700D01*
X8413400Y-5199800D02*
X8413400Y-5276000D01*
X8413400Y-5060100D02*
X8413400Y-5149000D01*
X8413400Y-4920400D02*
X8413400Y-4996600D01*
X8413400Y-4780700D02*
X8413400Y-4856900D01*
X8388000Y-4780700D02*
X8413400Y-4780700D01*
X8311800Y-4780700D02*
X8349900Y-4780700D01*
X8210200Y-4780700D02*
X8261000Y-4780700D01*
X8095900Y-4780700D02*
X8159400Y-4780700D01*
X7994300Y-4780700D02*
X8057800Y-4780700D01*
X7892700Y-4780700D02*
X7943500Y-4780700D01*
X7778400Y-4780700D02*
X7829200Y-4780700D01*
X7689500Y-4780700D02*
X7727600Y-4780700D01*
X7562500Y-4780700D02*
X7626000Y-4780700D01*
X7448200Y-4780700D02*
X7499000Y-4780700D01*
X7346600Y-4780700D02*
X7397400Y-4780700D01*
X8388000Y-5580800D02*
X8413400Y-5580800D01*
X8311800Y-5580800D02*
X8349900Y-5580800D01*
X8210200Y-5580800D02*
X8261000Y-5580800D01*
X8095900Y-5580800D02*
X8159400Y-5580800D01*
X7994300Y-5580800D02*
X8057800Y-5580800D01*
X7880000Y-5580800D02*
X7943500Y-5580800D01*
X7778400Y-5580800D02*
X7829200Y-5580800D01*
X7676800Y-5580800D02*
X7727600Y-5580800D01*
X7562500Y-5580800D02*
X7626000Y-5580800D01*
X7448200Y-5580800D02*
X7499000Y-5580800D01*
X7346600Y-5580800D02*
X7397400Y-5580800D01*
X8388000Y-6431700D02*
X8413400Y-6431700D01*
X8311800Y-6431700D02*
X8349900Y-6431700D01*
X8210200Y-6431700D02*
X8261000Y-6431700D01*
X8095900Y-6431700D02*
X8159400Y-6431700D01*
X7994300Y-6431700D02*
X8057800Y-6431700D01*
X7880000Y-6431700D02*
X7943500Y-6431700D01*
X7778400Y-6431700D02*
X7829200Y-6431700D01*
X7676800Y-6431700D02*
X7727600Y-6431700D01*
X7562500Y-6431700D02*
X7626000Y-6431700D01*
X7448200Y-6431700D02*
X7499000Y-6431700D01*
X7346600Y-6431700D02*
X7397400Y-6431700D01*
X5782540Y-6429160D02*
X5782540Y-6558700D01*
X5526000Y-6434240D02*
X5526000Y-6563780D01*
X6034000Y-6434240D02*
X6034000Y-6568860D01*
X5701260Y-4884840D02*
X5734280Y-4877220D01*
X5630140Y-4917860D02*
X5663160Y-4900080D01*
X5574260Y-4976280D02*
X5599660Y-4948340D01*
X5538700Y-5047400D02*
X5551400Y-5016920D01*
X5528540Y-5131220D02*
X5531080Y-5093120D01*
X5543780Y-5209960D02*
X5533620Y-5176940D01*
X5586960Y-5283620D02*
X5566640Y-5253140D01*
X5647920Y-5336960D02*
X5619980Y-5316640D01*
X5739360Y-5369980D02*
X5691100Y-5357280D01*
X5820640Y-5372520D02*
X5780000Y-5375060D01*
X5904460Y-5342040D02*
X5863820Y-5359820D01*
X5967960Y-5288700D02*
X5937480Y-5319180D01*
X6013680Y-5217580D02*
X5993360Y-5255680D01*
X6031460Y-5136300D02*
X6023840Y-5176940D01*
X6023840Y-5060100D02*
X6026380Y-5093120D01*
X5988280Y-4981360D02*
X6006060Y-5014380D01*
X5929860Y-4917860D02*
X5957800Y-4945800D01*
X5856200Y-4884840D02*
X5891760Y-4900080D01*
X5782540Y-4872140D02*
X5815560Y-4874680D01*
X5246600Y-6380900D02*
X5246600Y-6431700D01*
X5246600Y-6279300D02*
X5246600Y-6330100D01*
X5246600Y-6165000D02*
X5246600Y-6228500D01*
X5246600Y-6038000D02*
X5246600Y-6114200D01*
X5246600Y-5898300D02*
X5246600Y-5974500D01*
X5246600Y-5771300D02*
X5246600Y-5847500D01*
X5246600Y-5644300D02*
X5246600Y-5707800D01*
X5246600Y-5479200D02*
X5246600Y-5580800D01*
X5246600Y-5339500D02*
X5246600Y-5415700D01*
X5246600Y-5199800D02*
X5246600Y-5276000D01*
X5246600Y-5060100D02*
X5246600Y-5149000D01*
X5246600Y-4920400D02*
X5246600Y-4996600D01*
X5246600Y-4780700D02*
X5246600Y-4856900D01*
X6313400Y-6380900D02*
X6313400Y-6431700D01*
X6313400Y-6279300D02*
X6313400Y-6330100D01*
X6313400Y-6165000D02*
X6313400Y-6228500D01*
X6313400Y-6038000D02*
X6313400Y-6114200D01*
X6313400Y-5898300D02*
X6313400Y-5974500D01*
X6313400Y-5771300D02*
X6313400Y-5847500D01*
X6313400Y-5644300D02*
X6313400Y-5707800D01*
X6313400Y-5479200D02*
X6313400Y-5580800D01*
X6313400Y-5339500D02*
X6313400Y-5415700D01*
X6313400Y-5199800D02*
X6313400Y-5276000D01*
X6313400Y-5060100D02*
X6313400Y-5149000D01*
X6313400Y-4920400D02*
X6313400Y-4996600D01*
X6313400Y-4780700D02*
X6313400Y-4856900D01*
X6288000Y-4780700D02*
X6313400Y-4780700D01*
X6211800Y-4780700D02*
X6249900Y-4780700D01*
X6110200Y-4780700D02*
X6161000Y-4780700D01*
X5995900Y-4780700D02*
X6059400Y-4780700D01*
X5894300Y-4780700D02*
X5957800Y-4780700D01*
X5792700Y-4780700D02*
X5843500Y-4780700D01*
X5678400Y-4780700D02*
X5729200Y-4780700D01*
X5589500Y-4780700D02*
X5627600Y-4780700D01*
X5462500Y-4780700D02*
X5526000Y-4780700D01*
X5348200Y-4780700D02*
X5399000Y-4780700D01*
X5246600Y-4780700D02*
X5297400Y-4780700D01*
X6288000Y-5580800D02*
X6313400Y-5580800D01*
X6211800Y-5580800D02*
X6249900Y-5580800D01*
X6110200Y-5580800D02*
X6161000Y-5580800D01*
X5995900Y-5580800D02*
X6059400Y-5580800D01*
X5894300Y-5580800D02*
X5957800Y-5580800D01*
X5780000Y-5580800D02*
X5843500Y-5580800D01*
X5678400Y-5580800D02*
X5729200Y-5580800D01*
X5576800Y-5580800D02*
X5627600Y-5580800D01*
X5462500Y-5580800D02*
X5526000Y-5580800D01*
X5348200Y-5580800D02*
X5399000Y-5580800D01*
X5246600Y-5580800D02*
X5297400Y-5580800D01*
X6288000Y-6431700D02*
X6313400Y-6431700D01*
X6211800Y-6431700D02*
X6249900Y-6431700D01*
X6110200Y-6431700D02*
X6161000Y-6431700D01*
X5995900Y-6431700D02*
X6059400Y-6431700D01*
X5894300Y-6431700D02*
X5957800Y-6431700D01*
X5780000Y-6431700D02*
X5843500Y-6431700D01*
X5678400Y-6431700D02*
X5729200Y-6431700D01*
X5576800Y-6431700D02*
X5627600Y-6431700D01*
X5462500Y-6431700D02*
X5526000Y-6431700D01*
X5348200Y-6431700D02*
X5399000Y-6431700D01*
X5246600Y-6431700D02*
X5297400Y-6431700D01*
X3004312Y-8597900D02*
X3055112Y-8597900D01*
X3004312Y-8648700D02*
X3055112Y-8648700D01*
X3004312Y-9156700D02*
X3055112Y-9156700D01*
X3004312Y-9105900D02*
X3055112Y-9105900D01*
X3004312Y-8902700D02*
X3055112Y-8902700D01*
X3004312Y-8851900D02*
X3055112Y-8851900D01*
X3004312Y-9359900D02*
X3055112Y-9359900D01*
X3004312Y-9410700D02*
X3055112Y-9410700D01*
X3004312Y-9613900D02*
X3055112Y-9613900D01*
X3004312Y-9664700D02*
X3055112Y-9664700D01*
X3004312Y-10426700D02*
X3055112Y-10426700D01*
X3004312Y-10375900D02*
X3055112Y-10375900D01*
X3004312Y-9867900D02*
X3055112Y-9867900D01*
X3004312Y-9918700D02*
X3055112Y-9918700D01*
X3004312Y-10121900D02*
X3055112Y-10121900D01*
X3004312Y-10172700D02*
X3055112Y-10172700D01*
X2750312Y-8902700D02*
X2801112Y-8902700D01*
X2750312Y-8851900D02*
X2801112Y-8851900D01*
X2750312Y-8648700D02*
X2801112Y-8648700D01*
X2750312Y-8597900D02*
X2801112Y-8597900D01*
X2750312Y-9105900D02*
X2801112Y-9105900D01*
X2750312Y-9156700D02*
X2801112Y-9156700D01*
X2750312Y-9359900D02*
X2801112Y-9359900D01*
X2750312Y-9410700D02*
X2801112Y-9410700D01*
X2750312Y-10426700D02*
X2801112Y-10426700D01*
X2750312Y-10375900D02*
X2801112Y-10375900D01*
X2750312Y-10172700D02*
X2801112Y-10172700D01*
X2750312Y-10121900D02*
X2801112Y-10121900D01*
X2750312Y-9613900D02*
X2801112Y-9613900D01*
X2750312Y-9664700D02*
X2801112Y-9664700D01*
X2750312Y-9867900D02*
X2801112Y-9867900D01*
X2750312Y-9918700D02*
X2801112Y-9918700D01*
X3156712Y-10556300D02*
X3271712Y-10556300D01*
X3271712Y-10556300D02*
X3271712Y-10401300D01*
X2496312Y-10414000D02*
X1899412Y-10414000D01*
X1899412Y-10414000D02*
X1899412Y-10388600D01*
X1899412Y-10388600D02*
X2483612Y-10388600D01*
X2483612Y-10388600D02*
X2483612Y-10401300D01*
X2483612Y-10401300D02*
X1899412Y-10401300D01*
X2750312Y-9512300D02*
X2496312Y-9512300D01*
X2750312Y-9512300D02*
X2750312Y-9258300D01*
X2750312Y-9258300D02*
X2496312Y-9258300D01*
X2496312Y-9410700D02*
X1886712Y-9410700D01*
X1886712Y-9410700D02*
X1886712Y-9359900D01*
X1886712Y-9359900D02*
X2496312Y-9359900D01*
X2496312Y-9258300D02*
X2496312Y-9512300D01*
X2496312Y-9004300D02*
X2496312Y-9258300D01*
X1886712Y-9105900D02*
X2496312Y-9105900D01*
X1886712Y-9156700D02*
X1886712Y-9105900D01*
X2496312Y-9156700D02*
X1886712Y-9156700D01*
X2750312Y-9004300D02*
X2496312Y-9004300D01*
X2750312Y-9258300D02*
X2750312Y-9004300D01*
X2750312Y-9258300D02*
X2496312Y-9258300D01*
X2750312Y-8750300D02*
X2496312Y-8750300D01*
X2750312Y-8750300D02*
X2750312Y-8496300D01*
X2750312Y-8496300D02*
X2496312Y-8496300D01*
X2496312Y-8648700D02*
X1886712Y-8648700D01*
X1886712Y-8648700D02*
X1886712Y-8597900D01*
X1886712Y-8597900D02*
X2496312Y-8597900D01*
X2496312Y-8496300D02*
X2496312Y-8750300D01*
X2496312Y-8750300D02*
X2496312Y-9004300D01*
X1886712Y-8851900D02*
X2496312Y-8851900D01*
X1886712Y-8902700D02*
X1886712Y-8851900D01*
X2496312Y-8902700D02*
X1886712Y-8902700D01*
X2750312Y-8750300D02*
X2496312Y-8750300D01*
X2750312Y-9004300D02*
X2750312Y-8750300D01*
X2750312Y-9004300D02*
X2496312Y-9004300D01*
X2750312Y-10020300D02*
X2496312Y-10020300D01*
X2750312Y-10020300D02*
X2750312Y-9766300D01*
X2750312Y-9766300D02*
X2496312Y-9766300D01*
X2496312Y-9918700D02*
X1886712Y-9918700D01*
X1886712Y-9918700D02*
X1886712Y-9867900D01*
X1886712Y-9867900D02*
X2496312Y-9867900D01*
X2496312Y-9766300D02*
X2496312Y-10020300D01*
X2496312Y-9512300D02*
X2496312Y-9766300D01*
X1886712Y-9613900D02*
X2496312Y-9613900D01*
X1886712Y-9664700D02*
X1886712Y-9613900D01*
X2496312Y-9664700D02*
X1886712Y-9664700D01*
X2750312Y-9512300D02*
X2496312Y-9512300D01*
X2750312Y-9766300D02*
X2750312Y-9512300D01*
X2750312Y-9766300D02*
X2496312Y-9766300D01*
X2750312Y-10274300D02*
X2496312Y-10274300D01*
X2750312Y-10274300D02*
X2750312Y-10020300D01*
X2750312Y-10020300D02*
X2496312Y-10020300D01*
X2496312Y-10172700D02*
X1886712Y-10172700D01*
X1886712Y-10172700D02*
X1886712Y-10121900D01*
X1886712Y-10121900D02*
X2496312Y-10121900D01*
X2496312Y-10020300D02*
X2496312Y-10274300D01*
X2496312Y-10274300D02*
X2496312Y-10528300D01*
X1886712Y-10375900D02*
X2496312Y-10375900D01*
X1886712Y-10426700D02*
X1886712Y-10375900D01*
X2496312Y-10426700D02*
X1886712Y-10426700D01*
X2750312Y-10274300D02*
X2496312Y-10274300D01*
X2750312Y-10528300D02*
X2750312Y-10274300D01*
X2750312Y-10528300D02*
X2496312Y-10528300D01*
X6038520Y-11733200D02*
X5338520Y-11733200D01*
X5338520Y-11733200D02*
X5338520Y-11533200D01*
X5338520Y-11533200D02*
X6038520Y-11533200D01*
X6038520Y-11533200D02*
X6038520Y-11733200D01*
X10996000Y-12788000D02*
X11696000Y-12788000D01*
X11696000Y-12788000D02*
X11696000Y-12988000D01*
X11696000Y-12988000D02*
X10996000Y-12988000D01*
X10996000Y-12988000D02*
X10996000Y-12788000D01*
X2797500Y-11102500D02*
X3497500Y-11102500D01*
X3497500Y-11102500D02*
X3497500Y-11302500D01*
X3497500Y-11302500D02*
X2797500Y-11302500D01*
X2797500Y-11302500D02*
X2797500Y-11102500D01*
X2807500Y-12757500D02*
X3507500Y-12757500D01*
X3507500Y-12757500D02*
X3507500Y-12957500D01*
X3507500Y-12957500D02*
X2807500Y-12957500D01*
X2807500Y-12957500D02*
X2807500Y-12757500D01*
X10992500Y-11105000D02*
X11692500Y-11105000D01*
X11692500Y-11105000D02*
X11692500Y-11305000D01*
X11692500Y-11305000D02*
X10992500Y-11305000D01*
X10992500Y-11305000D02*
X10992500Y-11105000D01*
X9717500Y-12757500D02*
X10417500Y-12757500D01*
X10417500Y-12757500D02*
X10417500Y-12957500D01*
X10417500Y-12957500D02*
X9717500Y-12957500D01*
X9717500Y-12957500D02*
X9717500Y-12757500D01*
X9817500Y-11165000D02*
X10517500Y-11165000D01*
X10517500Y-11165000D02*
X10517500Y-11365000D01*
X10517500Y-11365000D02*
X9817500Y-11365000D01*
X9817500Y-11365000D02*
X9817500Y-11165000D01*
X4122500Y-12715000D02*
X4822500Y-12715000D01*
X4822500Y-12715000D02*
X4822500Y-12915000D01*
X4822500Y-12915000D02*
X4122500Y-12915000D01*
X4122500Y-12915000D02*
X4122500Y-12715000D01*
X4105000Y-11077500D02*
X4805000Y-11077500D01*
X4805000Y-11077500D02*
X4805000Y-11277500D01*
X4805000Y-11277500D02*
X4105000Y-11277500D01*
X4105000Y-11277500D02*
X4105000Y-11077500D01*
X10852916Y-14947360D02*
X10152916Y-14947360D01*
X10152916Y-14947360D02*
X10152916Y-14747360D01*
X10152916Y-14747360D02*
X10852916Y-14747360D01*
X10852916Y-14747360D02*
X10852916Y-14947360D01*
X10152916Y-14472360D02*
X10852916Y-14472360D01*
X10852916Y-14472360D02*
X10852916Y-14672360D01*
X10852916Y-14672360D02*
X10152916Y-14672360D01*
X10152916Y-14672360D02*
X10152916Y-14472360D01*
X9093040Y-8409840D02*
X8393040Y-8409840D01*
X8393040Y-8409840D02*
X8393040Y-8209840D01*
X8393040Y-8209840D02*
X9093040Y-8209840D01*
X9093040Y-8209840D02*
X9093040Y-8409840D01*
X9093040Y-8729840D02*
X8393040Y-8729840D01*
X8393040Y-8729840D02*
X8393040Y-8529840D01*
X8393040Y-8529840D02*
X9093040Y-8529840D01*
X9093040Y-8529840D02*
X9093040Y-8729840D01*
X8393040Y-10409840D02*
X9093040Y-10409840D01*
X9093040Y-10409840D02*
X9093040Y-10609840D01*
X9093040Y-10609840D02*
X8393040Y-10609840D01*
X8393040Y-10609840D02*
X8393040Y-10409840D01*
X8393040Y-10089840D02*
X9093040Y-10089840D01*
X9093040Y-10089840D02*
X9093040Y-10289840D01*
X9093040Y-10289840D02*
X8393040Y-10289840D01*
X8393040Y-10289840D02*
X8393040Y-10089840D01*
X1796020Y-17540924D02*
X1796020Y-17641000D01*
X5981840Y-10243510D02*
X6681840Y-10243510D01*
X6681840Y-10243510D02*
X6681840Y-10443510D01*
X6681840Y-10443510D02*
X5981840Y-10443510D01*
X5981840Y-10443510D02*
X5981840Y-10243510D01*
X5981840Y-9953950D02*
X6681840Y-9953950D01*
X6681840Y-9953950D02*
X6681840Y-10153950D01*
X6681840Y-10153950D02*
X5981840Y-10153950D01*
X5981840Y-10153950D02*
X5981840Y-9953950D01*
X8232278Y-10705031D02*
X8132278Y-10705031D01*
X8232278Y-10647888D02*
X8175135Y-10690745D01*
X8132278Y-10647888D02*
X8189421Y-10705031D01*
X7884278Y-8167030D02*
X7784278Y-8167030D01*
X7884278Y-8109888D02*
X7827135Y-8152745D01*
X7784278Y-8109888D02*
X7841421Y-8167030D01*
X11547154Y-14987550D02*
X11447154Y-14987550D01*
X11547154Y-14930408D02*
X11490011Y-14973265D01*
X11447154Y-14930408D02*
X11504297Y-14987550D01*
X7234762Y-5575238D02*
X7234762Y-5475238D01*
X7268095Y-5546667D01*
X7301428Y-5475238D01*
X7301428Y-5575238D01*
X7363333Y-5575238D02*
X7353809Y-5570476D01*
X7349047Y-5565714D01*
X7344286Y-5556191D01*
X7344286Y-5527619D01*
X7349047Y-5518095D01*
X7353809Y-5513333D01*
X7363333Y-5508571D01*
X7377619Y-5508571D01*
X7387143Y-5513333D01*
X7391905Y-5518095D01*
X7396667Y-5527619D01*
X7396667Y-5556191D01*
X7391905Y-5565714D01*
X7387143Y-5570476D01*
X7377619Y-5575238D01*
X7363333Y-5575238D01*
X7482381Y-5508571D02*
X7482381Y-5575238D01*
X7439524Y-5508571D02*
X7439524Y-5560952D01*
X7444286Y-5570476D01*
X7453809Y-5575238D01*
X7468095Y-5575238D01*
X7477619Y-5570476D01*
X7482381Y-5565714D01*
X7530000Y-5508571D02*
X7530000Y-5575238D01*
X7530000Y-5518095D02*
X7534762Y-5513333D01*
X7544286Y-5508571D01*
X7558571Y-5508571D01*
X7568095Y-5513333D01*
X7572857Y-5522857D01*
X7572857Y-5575238D01*
X7606190Y-5508571D02*
X7644286Y-5508571D01*
X7620476Y-5475238D02*
X7620476Y-5560952D01*
X7625238Y-5570476D01*
X7634762Y-5575238D01*
X7644286Y-5575238D01*
X7715714Y-5570476D02*
X7706190Y-5575238D01*
X7687143Y-5575238D01*
X7677619Y-5570476D01*
X7672857Y-5560952D01*
X7672857Y-5522857D01*
X7677619Y-5513333D01*
X7687143Y-5508571D01*
X7706190Y-5508571D01*
X7715714Y-5513333D01*
X7720476Y-5522857D01*
X7720476Y-5532381D01*
X7672857Y-5541905D01*
X7806190Y-5575238D02*
X7806190Y-5475238D01*
X7806190Y-5570476D02*
X7796667Y-5575238D01*
X7777619Y-5575238D01*
X7768095Y-5570476D01*
X7763333Y-5565714D01*
X7758571Y-5556191D01*
X7758571Y-5527619D01*
X7763333Y-5518095D01*
X7768095Y-5513333D01*
X7777619Y-5508571D01*
X7796667Y-5508571D01*
X7806190Y-5513333D01*
X7915714Y-5508571D02*
X7953809Y-5508571D01*
X7930000Y-5575238D02*
X7930000Y-5489524D01*
X7934762Y-5480000D01*
X7944286Y-5475238D01*
X7953809Y-5475238D01*
X7987143Y-5575238D02*
X7987143Y-5508571D01*
X7987143Y-5527619D02*
X7991905Y-5518095D01*
X7996667Y-5513333D01*
X8006190Y-5508571D01*
X8015714Y-5508571D01*
X8063333Y-5575238D02*
X8053810Y-5570476D01*
X8049048Y-5565714D01*
X8044286Y-5556191D01*
X8044286Y-5527619D01*
X8049048Y-5518095D01*
X8053810Y-5513333D01*
X8063333Y-5508571D01*
X8077619Y-5508571D01*
X8087143Y-5513333D01*
X8091905Y-5518095D01*
X8096667Y-5527619D01*
X8096667Y-5556191D01*
X8091905Y-5565714D01*
X8087143Y-5570476D01*
X8077619Y-5575238D01*
X8063333Y-5575238D01*
X8139524Y-5575238D02*
X8139524Y-5508571D01*
X8139524Y-5518095D02*
X8144286Y-5513333D01*
X8153810Y-5508571D01*
X8168095Y-5508571D01*
X8177619Y-5513333D01*
X8182381Y-5522857D01*
X8182381Y-5575238D01*
X8182381Y-5522857D02*
X8187143Y-5513333D01*
X8196667Y-5508571D01*
X8210952Y-5508571D01*
X8220476Y-5513333D01*
X8225238Y-5522857D01*
X8225238Y-5575238D01*
X8396667Y-5575238D02*
X8349048Y-5575238D01*
X8349048Y-5475238D01*
X8425238Y-5570476D02*
X8439524Y-5575238D01*
X8463334Y-5575238D01*
X8472857Y-5570476D01*
X8477619Y-5565714D01*
X8482381Y-5556191D01*
X8482381Y-5546667D01*
X8477619Y-5537143D01*
X8472857Y-5532381D01*
X8463334Y-5527619D01*
X8444286Y-5522857D01*
X8434762Y-5518095D01*
X8430000Y-5513333D01*
X8425238Y-5503810D01*
X8425238Y-5494286D01*
X8430000Y-5484762D01*
X8434762Y-5480000D01*
X8444286Y-5475238D01*
X8468095Y-5475238D01*
X8482381Y-5480000D01*
X8525238Y-5565714D02*
X8530000Y-5570476D01*
X8525238Y-5575238D01*
X8520476Y-5570476D01*
X8525238Y-5565714D01*
X8525238Y-5575238D01*
X8525238Y-5537143D02*
X8520476Y-5480000D01*
X8525238Y-5475238D01*
X8530000Y-5480000D01*
X8525238Y-5537143D01*
X8525238Y-5475238D01*
X5134762Y-5575238D02*
X5134762Y-5475238D01*
X5168095Y-5546667D01*
X5201429Y-5475238D01*
X5201429Y-5575238D01*
X5263333Y-5575238D02*
X5253809Y-5570476D01*
X5249048Y-5565714D01*
X5244286Y-5556191D01*
X5244286Y-5527619D01*
X5249048Y-5518095D01*
X5253809Y-5513333D01*
X5263333Y-5508571D01*
X5277619Y-5508571D01*
X5287143Y-5513333D01*
X5291905Y-5518095D01*
X5296667Y-5527619D01*
X5296667Y-5556191D01*
X5291905Y-5565714D01*
X5287143Y-5570476D01*
X5277619Y-5575238D01*
X5263333Y-5575238D01*
X5382381Y-5508571D02*
X5382381Y-5575238D01*
X5339524Y-5508571D02*
X5339524Y-5560952D01*
X5344286Y-5570476D01*
X5353809Y-5575238D01*
X5368095Y-5575238D01*
X5377619Y-5570476D01*
X5382381Y-5565714D01*
X5430000Y-5508571D02*
X5430000Y-5575238D01*
X5430000Y-5518095D02*
X5434762Y-5513333D01*
X5444286Y-5508571D01*
X5458571Y-5508571D01*
X5468095Y-5513333D01*
X5472857Y-5522857D01*
X5472857Y-5575238D01*
X5506190Y-5508571D02*
X5544286Y-5508571D01*
X5520476Y-5475238D02*
X5520476Y-5560952D01*
X5525238Y-5570476D01*
X5534762Y-5575238D01*
X5544286Y-5575238D01*
X5615714Y-5570476D02*
X5606190Y-5575238D01*
X5587143Y-5575238D01*
X5577619Y-5570476D01*
X5572857Y-5560952D01*
X5572857Y-5522857D01*
X5577619Y-5513333D01*
X5587143Y-5508571D01*
X5606190Y-5508571D01*
X5615714Y-5513333D01*
X5620476Y-5522857D01*
X5620476Y-5532381D01*
X5572857Y-5541905D01*
X5706190Y-5575238D02*
X5706190Y-5475238D01*
X5706190Y-5570476D02*
X5696667Y-5575238D01*
X5677619Y-5575238D01*
X5668095Y-5570476D01*
X5663333Y-5565714D01*
X5658571Y-5556191D01*
X5658571Y-5527619D01*
X5663333Y-5518095D01*
X5668095Y-5513333D01*
X5677619Y-5508571D01*
X5696667Y-5508571D01*
X5706190Y-5513333D01*
X5815714Y-5508571D02*
X5853809Y-5508571D01*
X5830000Y-5575238D02*
X5830000Y-5489524D01*
X5834762Y-5480000D01*
X5844286Y-5475238D01*
X5853809Y-5475238D01*
X5887143Y-5575238D02*
X5887143Y-5508571D01*
X5887143Y-5527619D02*
X5891905Y-5518095D01*
X5896667Y-5513333D01*
X5906190Y-5508571D01*
X5915714Y-5508571D01*
X5963333Y-5575238D02*
X5953810Y-5570476D01*
X5949048Y-5565714D01*
X5944286Y-5556191D01*
X5944286Y-5527619D01*
X5949048Y-5518095D01*
X5953810Y-5513333D01*
X5963333Y-5508571D01*
X5977619Y-5508571D01*
X5987143Y-5513333D01*
X5991905Y-5518095D01*
X5996667Y-5527619D01*
X5996667Y-5556191D01*
X5991905Y-5565714D01*
X5987143Y-5570476D01*
X5977619Y-5575238D01*
X5963333Y-5575238D01*
X6039524Y-5575238D02*
X6039524Y-5508571D01*
X6039524Y-5518095D02*
X6044286Y-5513333D01*
X6053810Y-5508571D01*
X6068095Y-5508571D01*
X6077619Y-5513333D01*
X6082381Y-5522857D01*
X6082381Y-5575238D01*
X6082381Y-5522857D02*
X6087143Y-5513333D01*
X6096667Y-5508571D01*
X6110952Y-5508571D01*
X6120476Y-5513333D01*
X6125238Y-5522857D01*
X6125238Y-5575238D01*
X6296667Y-5575238D02*
X6249048Y-5575238D01*
X6249048Y-5475238D01*
X6325238Y-5570476D02*
X6339524Y-5575238D01*
X6363333Y-5575238D01*
X6372857Y-5570476D01*
X6377619Y-5565714D01*
X6382381Y-5556191D01*
X6382381Y-5546667D01*
X6377619Y-5537143D01*
X6372857Y-5532381D01*
X6363333Y-5527619D01*
X6344286Y-5522857D01*
X6334762Y-5518095D01*
X6330000Y-5513333D01*
X6325238Y-5503810D01*
X6325238Y-5494286D01*
X6330000Y-5484762D01*
X6334762Y-5480000D01*
X6344286Y-5475238D01*
X6368095Y-5475238D01*
X6382381Y-5480000D01*
X6425238Y-5565714D02*
X6430000Y-5570476D01*
X6425238Y-5575238D01*
X6420476Y-5570476D01*
X6425238Y-5565714D01*
X6425238Y-5575238D01*
X6425238Y-5537143D02*
X6420476Y-5480000D01*
X6425238Y-5475238D01*
X6430000Y-5480000D01*
X6425238Y-5537143D01*
X6425238Y-5475238D01*
M02*
