%TF.GenerationSoftware,KiCad,Pcbnew,4.0.2-stable*%
%TF.CreationDate,2016-09-16T18:38:57+02:00*%
%TF.ProjectId,Power_converter_V_3,506F7765725F636F6E7665727465725F,rev?*%
%TF.FileFunction,Soldermask,Top*%
%FSLAX46Y46*%
G04 Gerber Fmt 4.6, Leading zero omitted, Abs format (unit mm)*
G04 Created by KiCad (PCBNEW 4.0.2-stable) date 16/09/2016 18:38:57*
%MOMM*%
G01*
G04 APERTURE LIST*
%ADD10C,0.100000*%
%ADD11C,2.000000*%
%ADD12O,2.940000X1.924000*%
%ADD13C,2.900000*%
%ADD14R,2.900000X2.900000*%
%ADD15C,2.398980*%
%ADD16O,1.901140X2.899360*%
%ADD17R,1.700000X1.700000*%
%ADD18C,1.700000*%
%ADD19C,10.560000*%
%ADD20R,3.900120X3.900120*%
%ADD21R,2.398980X2.398980*%
%ADD22O,2.000000X2.700000*%
%ADD23R,2.127200X2.432000*%
%ADD24O,2.127200X2.432000*%
%ADD25R,2.432000X2.432000*%
%ADD26O,2.432000X2.432000*%
%ADD27R,2.400000X2.400000*%
%ADD28C,2.400000*%
%ADD29C,1.924000*%
%ADD30O,2.899360X1.901140*%
%ADD31O,2.099260X3.900120*%
%ADD32C,4.199840*%
%ADD33R,2.127200X2.127200*%
%ADD34O,2.500000X2.127200*%
%ADD35R,2.000000X2.000000*%
%ADD36C,3.900120*%
%ADD37C,5.400000*%
%ADD38C,4.400000*%
%ADD39C,4.900000*%
G04 APERTURE END LIST*
D10*
D11*
X84074000Y-112776000D03*
X68130000Y-128050000D03*
X37603200Y-112037200D03*
X107340000Y-126090000D03*
X114540000Y-139390000D03*
X50490000Y-168420000D03*
X77690000Y-156680000D03*
X81750000Y-137330000D03*
X53920000Y-127130000D03*
X90630000Y-126760000D03*
X108204400Y-46250400D03*
X27483200Y-46047200D03*
X79604000Y-93596000D03*
X89764000Y-70228000D03*
X20106000Y-83632000D03*
D12*
X86880700Y-134741920D03*
X86880700Y-137281920D03*
X86880700Y-139821920D03*
X86880700Y-147441920D03*
X86880700Y-144901920D03*
X86880700Y-142361920D03*
X86880700Y-152521920D03*
X86880700Y-155061920D03*
X86880700Y-157601920D03*
X86880700Y-162681920D03*
X86880700Y-165221920D03*
X38620700Y-134741920D03*
X38620700Y-137281920D03*
X38620700Y-139821920D03*
X38620700Y-142361920D03*
X38620700Y-144901920D03*
X38620700Y-147441920D03*
X38620700Y-149981920D03*
X38620700Y-152521920D03*
X38620700Y-156585920D03*
X38620700Y-159125920D03*
X38620700Y-161665920D03*
X38620700Y-164205920D03*
X38620700Y-166745920D03*
X38620700Y-169285920D03*
X38620700Y-171825920D03*
X38620700Y-174365920D03*
X86880700Y-160141920D03*
D13*
X63028200Y-82375960D03*
D14*
X52868200Y-82375960D03*
D15*
X71374000Y-102362000D03*
X71374000Y-112522000D03*
X74472800Y-100228400D03*
X74472800Y-110388400D03*
D16*
X87530400Y-90898400D03*
X90070400Y-90898400D03*
X84990400Y-90898400D03*
D17*
X53147600Y-85705900D03*
D18*
X58147600Y-85705900D03*
D19*
X109118400Y-30835600D03*
X109118400Y-60807600D03*
X27894280Y-30556200D03*
X27894280Y-60528200D03*
D20*
X107599860Y-94600000D03*
X113599340Y-94600000D03*
X110599600Y-89901000D03*
X107703620Y-161452560D03*
X113703100Y-161452560D03*
X110703360Y-156753560D03*
D15*
X96132940Y-106858400D03*
D21*
X96132940Y-96698400D03*
D15*
X96127860Y-80738400D03*
D21*
X96127860Y-90898400D03*
D15*
X97137220Y-141782800D03*
D21*
X97137220Y-151942800D03*
D22*
X50544100Y-96183400D03*
X53084100Y-96183400D03*
X55624100Y-96183400D03*
X58164100Y-96183400D03*
X60704100Y-96183400D03*
X63244100Y-96183400D03*
X65784100Y-96183400D03*
X65784100Y-88563400D03*
X63244100Y-88563400D03*
X60704100Y-88563400D03*
X58164100Y-88563400D03*
X55624100Y-88563400D03*
X53084100Y-88563400D03*
X50544100Y-88563400D03*
D16*
X87530400Y-96898400D03*
X90070400Y-96898400D03*
X84990400Y-96898400D03*
X105029160Y-142473600D03*
X102489160Y-142473600D03*
X107569160Y-142473600D03*
D23*
X107429160Y-135573600D03*
D24*
X104889160Y-135573600D03*
X102349160Y-135573600D03*
D25*
X60020200Y-127292100D03*
D26*
X60020200Y-124752100D03*
D25*
X70439280Y-133830060D03*
D26*
X70439280Y-131290060D03*
D25*
X63195200Y-127292100D03*
D26*
X63195200Y-124752100D03*
D25*
X67264280Y-133830060D03*
D26*
X67264280Y-131290060D03*
D27*
X80130400Y-105098400D03*
D28*
X80130400Y-102558400D03*
D27*
X80130400Y-83098400D03*
D28*
X80130400Y-85638400D03*
D27*
X113279160Y-147923600D03*
D28*
X113279160Y-145383600D03*
D22*
X71310500Y-124764800D03*
X73850500Y-124764800D03*
X76390500Y-124764800D03*
X78930500Y-124764800D03*
X78930500Y-117144800D03*
X76390500Y-117144800D03*
X73850500Y-117144800D03*
X71310500Y-117144800D03*
D29*
X110197900Y-73621900D03*
X107657900Y-73621900D03*
X112737900Y-73621900D03*
X27388820Y-74261980D03*
X24848820Y-74261980D03*
X29928820Y-74261980D03*
D15*
X82730400Y-108498400D03*
X92890400Y-108498400D03*
X82730400Y-79698400D03*
X92890400Y-79698400D03*
D30*
X98501200Y-57607200D03*
X98501200Y-52527200D03*
X37744400Y-52222400D03*
X37744400Y-57302400D03*
D15*
X113294160Y-151739600D03*
X103134160Y-151739600D03*
X80800000Y-74000000D03*
X70640000Y-74000000D03*
X47800000Y-74200000D03*
X57960000Y-74200000D03*
X59974480Y-148181060D03*
X59974480Y-138021060D03*
X70566280Y-148308060D03*
X70566280Y-138148060D03*
X63149480Y-148181060D03*
X63149480Y-138021060D03*
X67391280Y-148308060D03*
X67391280Y-138148060D03*
X105003600Y-69392800D03*
X115163600Y-69392800D03*
X115448080Y-78455520D03*
X105288080Y-78455520D03*
X32595820Y-69943980D03*
X22435820Y-69943980D03*
X22491700Y-79377540D03*
X32651700Y-79377540D03*
D28*
X92100400Y-41880800D03*
D14*
X92100400Y-36880800D03*
D13*
X45466000Y-42084000D03*
D14*
X45466000Y-37084000D03*
D31*
X78800000Y-68000000D03*
X76260000Y-68000000D03*
X81340000Y-68000000D03*
D32*
X78800000Y-51236000D03*
D31*
X57800000Y-68000000D03*
X55260000Y-68000000D03*
X60340000Y-68000000D03*
D32*
X57800000Y-51236000D03*
D11*
X48260000Y-53848000D03*
D33*
X31567120Y-104013000D03*
D34*
X29027120Y-104013000D03*
X31567120Y-101473000D03*
X29027120Y-101473000D03*
X31567120Y-98933000D03*
X29027120Y-98933000D03*
X31567120Y-96393000D03*
X29027120Y-96393000D03*
X31567120Y-93853000D03*
X29027120Y-93853000D03*
X31567120Y-91313000D03*
X29027120Y-91313000D03*
X31567120Y-88773000D03*
X29027120Y-88773000D03*
X31567120Y-86233000D03*
X29027120Y-86233000D03*
D35*
X59385200Y-116332000D03*
D11*
X54385200Y-116332000D03*
D35*
X110960000Y-128880000D03*
D11*
X115960000Y-128880000D03*
D35*
X28975000Y-112025000D03*
D11*
X33975000Y-112025000D03*
D35*
X29075000Y-128575000D03*
D11*
X34075000Y-128575000D03*
D35*
X110925000Y-112050000D03*
D11*
X115925000Y-112050000D03*
D35*
X98175000Y-128575000D03*
D11*
X103175000Y-128575000D03*
D35*
X99175000Y-112650000D03*
D11*
X104175000Y-112650000D03*
D35*
X42225000Y-128150000D03*
D11*
X47225000Y-128150000D03*
D35*
X42050000Y-111775000D03*
D11*
X47050000Y-111775000D03*
D35*
X107529160Y-148473600D03*
D11*
X102529160Y-148473600D03*
D35*
X102529160Y-145723600D03*
D11*
X107529160Y-145723600D03*
D35*
X89930400Y-83098400D03*
D11*
X84930400Y-83098400D03*
D35*
X89930400Y-86298400D03*
D11*
X84930400Y-86298400D03*
D35*
X84930400Y-105098400D03*
D11*
X89930400Y-105098400D03*
D35*
X84930400Y-101898400D03*
D11*
X89930400Y-101898400D03*
D36*
X22958920Y-171408740D03*
X22958920Y-21409040D03*
X112958740Y-21409040D03*
X112958740Y-171408740D03*
D37*
X69900800Y-20300600D03*
X69850000Y-51364800D03*
D38*
X73126600Y-23501000D03*
X66624200Y-48139000D03*
D39*
X69850000Y-35820000D03*
D35*
X60818400Y-103435100D03*
D11*
X65818400Y-103435100D03*
D35*
X60818400Y-100539500D03*
D11*
X65818400Y-100539500D03*
M02*
